%TF.GenerationSoftware,KiCad,Pcbnew,8.0.4*%
%TF.CreationDate,2024-09-11T20:39:54+02:00*%
%TF.ProjectId,BaseBoard,42617365-426f-4617-9264-2e6b69636164,rev?*%
%TF.SameCoordinates,Original*%
%TF.FileFunction,Copper,L1,Top*%
%TF.FilePolarity,Positive*%
%FSLAX46Y46*%
G04 Gerber Fmt 4.6, Leading zero omitted, Abs format (unit mm)*
G04 Created by KiCad (PCBNEW 8.0.4) date 2024-09-11 20:39:54*
%MOMM*%
%LPD*%
G01*
G04 APERTURE LIST*
G04 Aperture macros list*
%AMRoundRect*
0 Rectangle with rounded corners*
0 $1 Rounding radius*
0 $2 $3 $4 $5 $6 $7 $8 $9 X,Y pos of 4 corners*
0 Add a 4 corners polygon primitive as box body*
4,1,4,$2,$3,$4,$5,$6,$7,$8,$9,$2,$3,0*
0 Add four circle primitives for the rounded corners*
1,1,$1+$1,$2,$3*
1,1,$1+$1,$4,$5*
1,1,$1+$1,$6,$7*
1,1,$1+$1,$8,$9*
0 Add four rect primitives between the rounded corners*
20,1,$1+$1,$2,$3,$4,$5,0*
20,1,$1+$1,$4,$5,$6,$7,0*
20,1,$1+$1,$6,$7,$8,$9,0*
20,1,$1+$1,$8,$9,$2,$3,0*%
G04 Aperture macros list end*
%TA.AperFunction,SMDPad,CuDef*%
%ADD10RoundRect,0.250000X0.450000X-0.350000X0.450000X0.350000X-0.450000X0.350000X-0.450000X-0.350000X0*%
%TD*%
%TA.AperFunction,SMDPad,CuDef*%
%ADD11R,1.000000X1.000000*%
%TD*%
%TA.AperFunction,ComponentPad*%
%ADD12R,2.000000X2.000000*%
%TD*%
%TA.AperFunction,ComponentPad*%
%ADD13C,2.000000*%
%TD*%
%TA.AperFunction,SMDPad,CuDef*%
%ADD14RoundRect,0.250000X0.475000X-0.337500X0.475000X0.337500X-0.475000X0.337500X-0.475000X-0.337500X0*%
%TD*%
%TA.AperFunction,SMDPad,CuDef*%
%ADD15RoundRect,0.250000X-0.450000X0.350000X-0.450000X-0.350000X0.450000X-0.350000X0.450000X0.350000X0*%
%TD*%
%TA.AperFunction,ComponentPad*%
%ADD16R,1.700000X1.700000*%
%TD*%
%TA.AperFunction,ComponentPad*%
%ADD17O,1.700000X1.700000*%
%TD*%
%TA.AperFunction,SMDPad,CuDef*%
%ADD18RoundRect,0.250000X-0.337500X-0.475000X0.337500X-0.475000X0.337500X0.475000X-0.337500X0.475000X0*%
%TD*%
%TA.AperFunction,ComponentPad*%
%ADD19R,1.200000X1.200000*%
%TD*%
%TA.AperFunction,ComponentPad*%
%ADD20C,1.200000*%
%TD*%
%TA.AperFunction,ComponentPad*%
%ADD21O,2.616000X1.308000*%
%TD*%
%TA.AperFunction,ComponentPad*%
%ADD22O,1.308000X2.616000*%
%TD*%
%TA.AperFunction,ComponentPad*%
%ADD23R,1.600000X1.600000*%
%TD*%
%TA.AperFunction,ComponentPad*%
%ADD24C,1.600000*%
%TD*%
%TA.AperFunction,ComponentPad*%
%ADD25R,2.000000X1.905000*%
%TD*%
%TA.AperFunction,ComponentPad*%
%ADD26O,2.000000X1.905000*%
%TD*%
%TA.AperFunction,SMDPad,CuDef*%
%ADD27RoundRect,0.250000X0.337500X0.475000X-0.337500X0.475000X-0.337500X-0.475000X0.337500X-0.475000X0*%
%TD*%
%TA.AperFunction,SMDPad,CuDef*%
%ADD28RoundRect,0.250000X0.325000X0.450000X-0.325000X0.450000X-0.325000X-0.450000X0.325000X-0.450000X0*%
%TD*%
%TA.AperFunction,SMDPad,CuDef*%
%ADD29R,1.300000X1.550000*%
%TD*%
%TA.AperFunction,SMDPad,CuDef*%
%ADD30R,1.400000X0.600000*%
%TD*%
%TA.AperFunction,SMDPad,CuDef*%
%ADD31R,1.500000X0.900000*%
%TD*%
%TA.AperFunction,SMDPad,CuDef*%
%ADD32R,0.900000X1.500000*%
%TD*%
%TA.AperFunction,SMDPad,CuDef*%
%ADD33R,0.900000X0.900000*%
%TD*%
%TA.AperFunction,HeatsinkPad*%
%ADD34C,0.600000*%
%TD*%
%TA.AperFunction,SMDPad,CuDef*%
%ADD35R,3.800000X3.800000*%
%TD*%
%TA.AperFunction,SMDPad,CuDef*%
%ADD36RoundRect,0.250000X0.750000X0.750000X-0.750000X0.750000X-0.750000X-0.750000X0.750000X-0.750000X0*%
%TD*%
%TA.AperFunction,SMDPad,CuDef*%
%ADD37R,0.250000X1.100000*%
%TD*%
%TA.AperFunction,SMDPad,CuDef*%
%ADD38RoundRect,0.250000X0.350000X0.450000X-0.350000X0.450000X-0.350000X-0.450000X0.350000X-0.450000X0*%
%TD*%
%TA.AperFunction,SMDPad,CuDef*%
%ADD39RoundRect,0.250000X-0.475000X0.337500X-0.475000X-0.337500X0.475000X-0.337500X0.475000X0.337500X0*%
%TD*%
%TA.AperFunction,ComponentPad*%
%ADD40RoundRect,0.250000X-0.600000X-0.600000X0.600000X-0.600000X0.600000X0.600000X-0.600000X0.600000X0*%
%TD*%
%TA.AperFunction,ComponentPad*%
%ADD41C,1.700000*%
%TD*%
%TA.AperFunction,ComponentPad*%
%ADD42R,2.200000X2.200000*%
%TD*%
%TA.AperFunction,ComponentPad*%
%ADD43O,2.200000X2.200000*%
%TD*%
%TA.AperFunction,SMDPad,CuDef*%
%ADD44R,1.200000X0.600000*%
%TD*%
%TA.AperFunction,ComponentPad*%
%ADD45R,1.050000X1.500000*%
%TD*%
%TA.AperFunction,ComponentPad*%
%ADD46O,1.050000X1.500000*%
%TD*%
%TA.AperFunction,ViaPad*%
%ADD47C,0.600000*%
%TD*%
%TA.AperFunction,Conductor*%
%ADD48C,0.200000*%
%TD*%
%TA.AperFunction,Conductor*%
%ADD49C,2.000000*%
%TD*%
%TA.AperFunction,Conductor*%
%ADD50C,0.500000*%
%TD*%
%TA.AperFunction,Conductor*%
%ADD51C,1.000000*%
%TD*%
%TA.AperFunction,Conductor*%
%ADD52C,1.500000*%
%TD*%
G04 APERTURE END LIST*
D10*
%TO.P,R16,1*%
%TO.N,Net-(C16-Pad1)*%
X145019250Y-109837500D03*
%TO.P,R16,2*%
%TO.N,Net-(U8-POSB)*%
X145019250Y-107837500D03*
%TD*%
D11*
%TO.P,TP15,1,1*%
%TO.N,Net-(U7-Y)*%
X155500000Y-113750000D03*
%TD*%
D12*
%TO.P,C1,1*%
%TO.N,Net-(U1-VI)*%
X127000000Y-68500000D03*
D13*
%TO.P,C1,2*%
%TO.N,GND*%
X127000000Y-61000000D03*
%TD*%
D10*
%TO.P,R11,1*%
%TO.N,Net-(D8-K)*%
X175000000Y-75000000D03*
%TO.P,R11,2*%
%TO.N,GND*%
X175000000Y-73000000D03*
%TD*%
D14*
%TO.P,C16,1*%
%TO.N,Net-(C16-Pad1)*%
X149019250Y-107875000D03*
%TO.P,C16,2*%
%TO.N,/InputPeripherals/ADC_CH_1*%
X149019250Y-105800000D03*
%TD*%
D11*
%TO.P,TP2,1,1*%
%TO.N,+3V3*%
X118750000Y-73750000D03*
%TD*%
D15*
%TO.P,R19,1*%
%TO.N,+3V3*%
X173750000Y-68000000D03*
%TO.P,R19,2*%
%TO.N,/I2C_SDA_EXT*%
X173750000Y-70000000D03*
%TD*%
D16*
%TO.P,RV2,1,1*%
%TO.N,Net-(U4-NEGA)*%
X166519250Y-109917500D03*
D17*
%TO.P,RV2,2,2*%
%TO.N,/InputPeripherals/AMP_CH_0*%
X166519250Y-107377500D03*
%TO.P,RV2,3,3*%
X166519250Y-104837500D03*
%TD*%
D16*
%TO.P,J2,1,Pin_1*%
%TO.N,+5V*%
X113080000Y-96000000D03*
D17*
%TO.P,J2,2,Pin_2*%
%TO.N,Net-(J2-Pin_2)*%
X110540000Y-96000000D03*
%TO.P,J2,3,Pin_3*%
%TO.N,GND1*%
X108000000Y-96000000D03*
%TD*%
D11*
%TO.P,TP14,1,1*%
%TO.N,Net-(U7-X)*%
X164500000Y-113000000D03*
%TD*%
D18*
%TO.P,C14,1*%
%TO.N,+3V3*%
X142925000Y-100000000D03*
%TO.P,C14,2*%
%TO.N,GND*%
X145000000Y-100000000D03*
%TD*%
D19*
%TO.P,C18,1*%
%TO.N,Net-(U10-CAP+)*%
X130000000Y-73250000D03*
D20*
%TO.P,C18,2*%
%TO.N,Net-(U10-CAP-)*%
X130000000Y-71250000D03*
%TD*%
D21*
%TO.P,J5,1*%
%TO.N,GND*%
X178480750Y-127662500D03*
D22*
%TO.P,J5,2*%
%TO.N,/InputPeripherals/AUX_IN_R*%
X183480750Y-122662500D03*
%TO.P,J5,3*%
%TO.N,/InputPeripherals/AUX_IN_L*%
X173480750Y-122662500D03*
%TD*%
D23*
%TO.P,C2,1*%
%TO.N,+3V3*%
X114250000Y-74817621D03*
D24*
%TO.P,C2,2*%
%TO.N,GND*%
X114250000Y-77317621D03*
%TD*%
D25*
%TO.P,U2,1,GND*%
%TO.N,GND1*%
X106695000Y-88172323D03*
D26*
%TO.P,U2,2,VO*%
%TO.N,+5V*%
X106695000Y-85632323D03*
%TO.P,U2,3,VI*%
%TO.N,Net-(U1-VI)*%
X106695000Y-83092323D03*
%TD*%
D27*
%TO.P,C7,1*%
%TO.N,Net-(U5-POSA)*%
X173094250Y-110500000D03*
%TO.P,C7,2*%
%TO.N,GND*%
X171019250Y-110500000D03*
%TD*%
D11*
%TO.P,TP6,1,1*%
%TO.N,/InputPeripherals/MIC_IN*%
X147040000Y-126162500D03*
%TD*%
D10*
%TO.P,R4,1*%
%TO.N,Net-(U5-NEGA)*%
X180000000Y-114000000D03*
%TO.P,R4,2*%
%TO.N,Net-(C6-Pad1)*%
X180000000Y-112000000D03*
%TD*%
%TO.P,R1,1*%
%TO.N,Net-(C5-Pad1)*%
X175556750Y-109500000D03*
%TO.P,R1,2*%
%TO.N,Net-(U5-POSA)*%
X175556750Y-107500000D03*
%TD*%
D27*
%TO.P,C13,1*%
%TO.N,+3V3*%
X146037500Y-71000000D03*
%TO.P,C13,2*%
%TO.N,GND*%
X143962500Y-71000000D03*
%TD*%
D11*
%TO.P,TP9,1,1*%
%TO.N,Net-(Q1-B)*%
X125250000Y-88750000D03*
%TD*%
D10*
%TO.P,R12,1*%
%TO.N,Net-(D7-K)*%
X175000000Y-87000000D03*
%TO.P,R12,2*%
%TO.N,GND*%
X175000000Y-85000000D03*
%TD*%
%TO.P,R3,1*%
%TO.N,/InputPeripherals/AMP_CH_0*%
X175556750Y-113500000D03*
%TO.P,R3,2*%
%TO.N,Net-(C5-Pad1)*%
X175556750Y-111500000D03*
%TD*%
%TO.P,R15,1*%
%TO.N,Net-(C15-Pad1)*%
X140519250Y-110000000D03*
%TO.P,R15,2*%
%TO.N,Net-(U8-POSA)*%
X140519250Y-108000000D03*
%TD*%
D28*
%TO.P,D7,1,K*%
%TO.N,Net-(D7-K)*%
X175000000Y-89000000D03*
%TO.P,D7,2,A*%
%TO.N,/OutputPeripherals/LED_1*%
X172950000Y-89000000D03*
%TD*%
D11*
%TO.P,TP4,1,1*%
%TO.N,/InputPeripherals/ADC_CH_1*%
X149750000Y-102000000D03*
%TD*%
D16*
%TO.P,J3,1,Pin_1*%
%TO.N,+3V3*%
X141475000Y-130975000D03*
D17*
%TO.P,J3,2,Pin_2*%
%TO.N,Net-(J3-Pin_2)*%
X144015000Y-130975000D03*
%TO.P,J3,3,Pin_3*%
%TO.N,GND*%
X146555000Y-130975000D03*
%TD*%
D19*
%TO.P,C19,1*%
%TO.N,GND*%
X126527401Y-80500000D03*
D20*
%TO.P,C19,2*%
%TO.N,-3V3*%
X128527401Y-80500000D03*
%TD*%
D29*
%TO.P,PB1,1,1*%
%TO.N,/InputPeripherals/PB_1*%
X182250000Y-85000000D03*
X182250000Y-92950000D03*
%TO.P,PB1,2,2*%
%TO.N,GND*%
X177750000Y-85000000D03*
X177750000Y-92950000D03*
%TD*%
D30*
%TO.P,U4,1,OUTA*%
%TO.N,/InputPeripherals/AMP_CH_0*%
X162592250Y-107742500D03*
%TO.P,U4,2,NEGA*%
%TO.N,Net-(U4-NEGA)*%
X162592250Y-106472500D03*
%TO.P,U4,3,POSA*%
%TO.N,GND*%
X162592250Y-105202500D03*
%TO.P,U4,4,V-*%
%TO.N,-3V3*%
X162592250Y-103932500D03*
%TO.P,U4,5,POSB*%
%TO.N,GND*%
X157446250Y-103932500D03*
%TO.P,U4,6,NEGB*%
%TO.N,Net-(U4-NEGB)*%
X157446250Y-105202500D03*
%TO.P,U4,7,OUTB*%
%TO.N,/InputPeripherals/AMP_CH_1*%
X157446250Y-106472500D03*
%TO.P,U4,8,V+*%
%TO.N,+3V3*%
X157446250Y-107742500D03*
%TD*%
D31*
%TO.P,U3,1,GND*%
%TO.N,GND*%
X148850000Y-67880000D03*
%TO.P,U3,2,VDD*%
%TO.N,+3V3*%
X148850000Y-69150000D03*
%TO.P,U3,3,EN*%
%TO.N,Net-(U3-EN)*%
X148850000Y-70420000D03*
%TO.P,U3,4,SENSOR_VP*%
%TO.N,unconnected-(U3-SENSOR_VP-Pad4)*%
X148850000Y-71690000D03*
%TO.P,U3,5,SENSOR_VN*%
%TO.N,unconnected-(U3-SENSOR_VN-Pad5)*%
X148850000Y-72960000D03*
%TO.P,U3,6,IO34*%
%TO.N,unconnected-(U3-IO34-Pad6)*%
X148850000Y-74230000D03*
%TO.P,U3,7,IO35*%
%TO.N,unconnected-(U3-IO35-Pad7)*%
X148850000Y-75500000D03*
%TO.P,U3,8,IO32*%
%TO.N,unconnected-(U3-IO32-Pad8)*%
X148850000Y-76770000D03*
%TO.P,U3,9,IO33*%
%TO.N,unconnected-(U3-IO33-Pad9)*%
X148850000Y-78040000D03*
%TO.P,U3,10,IO25*%
%TO.N,/InputPeripherals/MUX_B*%
X148850000Y-79310000D03*
%TO.P,U3,11,IO26*%
%TO.N,/InputPeripherals/PB_0*%
X148850000Y-80580000D03*
%TO.P,U3,12,IO27*%
%TO.N,/InputPeripherals/PB_1*%
X148850000Y-81850000D03*
%TO.P,U3,13,IO14*%
%TO.N,/JTAG_TMS*%
X148850000Y-83120000D03*
%TO.P,U3,14,IO12*%
%TO.N,/JTAG_TDI*%
X148850000Y-84390000D03*
D32*
%TO.P,U3,15,GND*%
%TO.N,GND*%
X151890000Y-85640000D03*
%TO.P,U3,16,IO13*%
%TO.N,/JTAG_TCK*%
X153160000Y-85640000D03*
%TO.P,U3,17,NC*%
%TO.N,unconnected-(U3-NC-Pad17)*%
X154430000Y-85640000D03*
%TO.P,U3,18,NC*%
%TO.N,unconnected-(U3-NC-Pad18)*%
X155700000Y-85640000D03*
%TO.P,U3,19,NC*%
%TO.N,unconnected-(U3-NC-Pad19)*%
X156970000Y-85640000D03*
%TO.P,U3,20,NC*%
%TO.N,unconnected-(U3-NC-Pad20)*%
X158240000Y-85640000D03*
%TO.P,U3,21,NC*%
%TO.N,unconnected-(U3-NC-Pad21)*%
X159510000Y-85640000D03*
%TO.P,U3,22,NC*%
%TO.N,unconnected-(U3-NC-Pad22)*%
X160780000Y-85640000D03*
%TO.P,U3,23,IO15*%
%TO.N,/JTAG_TDO*%
X162050000Y-85640000D03*
%TO.P,U3,24,IO2*%
%TO.N,/OutputPeripherals/LED_1*%
X163320000Y-85640000D03*
D31*
%TO.P,U3,25,IO0*%
%TO.N,/OutputPeripherals/LED_0*%
X166350000Y-84390000D03*
%TO.P,U3,26,IO4*%
%TO.N,unconnected-(U3-IO4-Pad26)*%
X166350000Y-83120000D03*
%TO.P,U3,27,IO16*%
%TO.N,/OutputPeripherals/SIG_PASSIVE_LED*%
X166350000Y-81850000D03*
%TO.P,U3,28,IO17*%
%TO.N,/OutputPeripherals/SIG_ACTIVE_LED*%
X166350000Y-80580000D03*
%TO.P,U3,29,IO5*%
%TO.N,unconnected-(U3-IO5-Pad29)*%
X166350000Y-79310000D03*
%TO.P,U3,30,IO18*%
%TO.N,unconnected-(U3-IO18-Pad30)*%
X166350000Y-78040000D03*
%TO.P,U3,31,IO19*%
%TO.N,/InputPeripherals/ADC_RDY*%
X166350000Y-76770000D03*
%TO.P,U3,32,NC*%
%TO.N,unconnected-(U3-NC-Pad32)*%
X166350000Y-75500000D03*
%TO.P,U3,33,IO21*%
%TO.N,/I2C_SDA_EXT*%
X166350000Y-74230000D03*
%TO.P,U3,34,RXD0/IO3*%
%TO.N,Net-(J8-Pin_3)*%
X166350000Y-72960000D03*
%TO.P,U3,35,TXD0/IO1*%
%TO.N,Net-(J8-Pin_2)*%
X166350000Y-71690000D03*
%TO.P,U3,36,IO22*%
%TO.N,/I2C_SCL_EXT*%
X166350000Y-70420000D03*
%TO.P,U3,37,IO23*%
%TO.N,/InputPeripherals/MUX_A*%
X166350000Y-69150000D03*
%TO.P,U3,38,GND*%
%TO.N,GND*%
X166350000Y-67880000D03*
D33*
%TO.P,U3,39,GND*%
X154700000Y-74200000D03*
D34*
X154700000Y-74900000D03*
D33*
X154700000Y-75600000D03*
D34*
X154700000Y-76300000D03*
D33*
X154700000Y-77000000D03*
D34*
X155400000Y-74200000D03*
X155400000Y-75600000D03*
X155400000Y-77000000D03*
X156075000Y-74900000D03*
X156075000Y-76300000D03*
D33*
X156100000Y-74200000D03*
X156100000Y-75600000D03*
D35*
X156100000Y-75600000D03*
D33*
X156100000Y-77000000D03*
D34*
X156800000Y-74200000D03*
X156800000Y-75600000D03*
X156800000Y-77000000D03*
D33*
X157500000Y-74200000D03*
D34*
X157500000Y-74900000D03*
D33*
X157500000Y-75600000D03*
D34*
X157500000Y-76300000D03*
D33*
X157500000Y-77000000D03*
%TD*%
D14*
%TO.P,C17,1*%
%TO.N,+3V3*%
X156000000Y-119700000D03*
%TO.P,C17,2*%
%TO.N,GND*%
X156000000Y-117625000D03*
%TD*%
D15*
%TO.P,R5,1*%
%TO.N,/OutputPeripherals/SIG_ACTIVE_LED*%
X112000000Y-91000000D03*
%TO.P,R5,2*%
%TO.N,Net-(J2-Pin_2)*%
X112000000Y-93000000D03*
%TD*%
D14*
%TO.P,C11,1*%
%TO.N,+3V3*%
X158750000Y-93037500D03*
%TO.P,C11,2*%
%TO.N,GND*%
X158750000Y-90962500D03*
%TD*%
D11*
%TO.P,TP5,1,1*%
%TO.N,/InputPeripherals/ADC_CH_0*%
X173250000Y-100750000D03*
%TD*%
D14*
%TO.P,C20,1*%
%TO.N,Net-(U8-POSA)*%
X137750000Y-113537500D03*
%TO.P,C20,2*%
%TO.N,GND*%
X137750000Y-111462500D03*
%TD*%
D36*
%TO.P,J1,1*%
%TO.N,Net-(U1-VI)*%
X120250000Y-67500000D03*
X120250000Y-61350000D03*
%TO.P,J1,2*%
%TO.N,GND*%
X109250000Y-61350000D03*
%TO.P,J1,3*%
%TO.N,N/C*%
X109250000Y-67500000D03*
%TD*%
D37*
%TO.P,U6,1,ADDR*%
%TO.N,GND*%
X157000000Y-99150000D03*
%TO.P,U6,2,ALERT/RDY*%
%TO.N,/InputPeripherals/ADC_RDY*%
X157500000Y-99150000D03*
%TO.P,U6,3,GND*%
%TO.N,GND*%
X158000000Y-99150000D03*
%TO.P,U6,4,AIN0*%
%TO.N,/InputPeripherals/ADC_CH_0*%
X158500000Y-99150000D03*
%TO.P,U6,5,AIN1*%
%TO.N,/InputPeripherals/ADC_CH_1*%
X159000000Y-99150000D03*
%TO.P,U6,6,AIN2*%
%TO.N,GND*%
X159000000Y-94850000D03*
%TO.P,U6,7,AIN3*%
X158500000Y-94850000D03*
%TO.P,U6,8,VDD*%
%TO.N,+3V3*%
X158000000Y-94850000D03*
%TO.P,U6,9,SDA*%
%TO.N,/I2C_SDA_EXT*%
X157500000Y-94850000D03*
%TO.P,U6,10,SCL*%
%TO.N,/I2C_SCL_EXT*%
X157000000Y-94850000D03*
%TD*%
D14*
%TO.P,C21,1*%
%TO.N,Net-(J3-Pin_2)*%
X144000000Y-128287500D03*
%TO.P,C21,2*%
%TO.N,/InputPeripherals/MIC_IN*%
X144000000Y-126212500D03*
%TD*%
D11*
%TO.P,TP13,1,1*%
%TO.N,/InputPeripherals/AUX_IN_R*%
X170750000Y-118750000D03*
%TD*%
D16*
%TO.P,RV1,1,1*%
%TO.N,/InputPeripherals/AMP_CH_1*%
X154019250Y-104837500D03*
D17*
%TO.P,RV1,2,2*%
X154019250Y-107377500D03*
%TO.P,RV1,3,3*%
%TO.N,Net-(U4-NEGB)*%
X154019250Y-109917500D03*
%TD*%
D11*
%TO.P,TP10,1,1*%
%TO.N,Net-(U3-EN)*%
X141000000Y-76000000D03*
%TD*%
D38*
%TO.P,R10,1*%
%TO.N,+3V3*%
X145000000Y-76000000D03*
%TO.P,R10,2*%
%TO.N,Net-(U3-EN)*%
X143000000Y-76000000D03*
%TD*%
D14*
%TO.P,C4,1*%
%TO.N,+3V3*%
X182519250Y-101257500D03*
%TO.P,C4,2*%
%TO.N,GND*%
X182519250Y-99182500D03*
%TD*%
D16*
%TO.P,J8,1,Pin_1*%
%TO.N,+3V3*%
X188850000Y-90250000D03*
D17*
%TO.P,J8,2,Pin_2*%
%TO.N,Net-(J8-Pin_2)*%
X188850000Y-87710000D03*
%TO.P,J8,3,Pin_3*%
%TO.N,Net-(J8-Pin_3)*%
X188850000Y-85170000D03*
%TO.P,J8,4,Pin_4*%
%TO.N,GND*%
X188850000Y-82630000D03*
%TD*%
D39*
%TO.P,C10,1*%
%TO.N,+3V3*%
X157519250Y-110300000D03*
%TO.P,C10,2*%
%TO.N,GND*%
X157519250Y-112375000D03*
%TD*%
D15*
%TO.P,R9,1*%
%TO.N,Net-(U4-NEGB)*%
X160019250Y-110337500D03*
%TO.P,R9,2*%
%TO.N,Net-(U7-Y)*%
X160019250Y-112337500D03*
%TD*%
D21*
%TO.P,J4,1*%
%TO.N,GND*%
X164480750Y-127662500D03*
D22*
%TO.P,J4,2*%
%TO.N,/InputPeripherals/AUX_IN_R*%
X169480750Y-122662500D03*
%TO.P,J4,3*%
%TO.N,/InputPeripherals/AUX_IN_L*%
X159480750Y-122662500D03*
%TD*%
D15*
%TO.P,R20,1*%
%TO.N,+3V3*%
X170800000Y-68000000D03*
%TO.P,R20,2*%
%TO.N,/I2C_SCL_EXT*%
X170800000Y-70000000D03*
%TD*%
D40*
%TO.P,J7,1,TCK*%
%TO.N,/JTAG_TCK*%
X186302500Y-64920000D03*
D41*
%TO.P,J7,2,GND*%
%TO.N,GND*%
X188842500Y-64920000D03*
%TO.P,J7,3,TDO*%
%TO.N,/JTAG_TDO*%
X186302500Y-67460000D03*
%TO.P,J7,4,VREF*%
%TO.N,+3V3*%
X188842500Y-67460000D03*
%TO.P,J7,5,TMS*%
%TO.N,/JTAG_TMS*%
X186302500Y-70000000D03*
%TO.P,J7,6,~{SRST}*%
%TO.N,+3V3*%
X188842500Y-70000000D03*
%TO.P,J7,7,VCC*%
X186302500Y-72540000D03*
%TO.P,J7,8,~{TRST}*%
X188842500Y-72540000D03*
%TO.P,J7,9,TDI*%
%TO.N,/JTAG_TDI*%
X186302500Y-75080000D03*
%TO.P,J7,10,GND*%
%TO.N,GND*%
X188842500Y-75080000D03*
%TD*%
D16*
%TO.P,J9,1,Pin_1*%
%TO.N,/I2C_SDA_EXT*%
X143025000Y-79200000D03*
D17*
%TO.P,J9,2,Pin_2*%
%TO.N,/I2C_SCL_EXT*%
X143025000Y-81740000D03*
%TO.P,J9,3,Pin_3*%
%TO.N,+3V3*%
X143025000Y-84280000D03*
%TO.P,J9,4,Pin_4*%
%TO.N,GND*%
X143025000Y-86820000D03*
%TD*%
D28*
%TO.P,D8,1,K*%
%TO.N,Net-(D8-K)*%
X175025000Y-77500000D03*
%TO.P,D8,2,A*%
%TO.N,/OutputPeripherals/LED_0*%
X172975000Y-77500000D03*
%TD*%
D27*
%TO.P,C12,1*%
%TO.N,+3V3*%
X146037500Y-69000000D03*
%TO.P,C12,2*%
%TO.N,GND*%
X143962500Y-69000000D03*
%TD*%
D10*
%TO.P,R17,1*%
%TO.N,/InputPeripherals/AMP_CH_1*%
X140519250Y-114000000D03*
%TO.P,R17,2*%
%TO.N,Net-(C15-Pad1)*%
X140519250Y-112000000D03*
%TD*%
D30*
%TO.P,U5,1,OUTA*%
%TO.N,Net-(U5-NEGA)*%
X175446250Y-101190000D03*
%TO.P,U5,2,NEGA*%
X175446250Y-102460000D03*
%TO.P,U5,3,POSA*%
%TO.N,Net-(U5-POSA)*%
X175446250Y-103730000D03*
%TO.P,U5,4,V-*%
%TO.N,-3V3*%
X175446250Y-105000000D03*
%TO.P,U5,5,POSB*%
%TO.N,Net-(U5-POSB)*%
X180592250Y-105000000D03*
%TO.P,U5,6,NEGB*%
%TO.N,/InputPeripherals/ADC_CH_0*%
X180592250Y-103730000D03*
%TO.P,U5,7,OUTB*%
X180592250Y-102460000D03*
%TO.P,U5,8,V+*%
%TO.N,+3V3*%
X180592250Y-101190000D03*
%TD*%
D42*
%TO.P,D6,1,K*%
%TO.N,GND*%
X135750000Y-80670000D03*
D43*
%TO.P,D6,2,A*%
%TO.N,GND1*%
X135750000Y-90830000D03*
%TD*%
D15*
%TO.P,R2,1*%
%TO.N,Net-(C6-Pad1)*%
X180019250Y-107500000D03*
%TO.P,R2,2*%
%TO.N,Net-(U5-POSB)*%
X180019250Y-109500000D03*
%TD*%
%TO.P,R8,1*%
%TO.N,+3V3*%
X178000000Y-68000000D03*
%TO.P,R8,2*%
%TO.N,GND*%
X178000000Y-70000000D03*
%TD*%
D11*
%TO.P,TP12,1,1*%
%TO.N,GND*%
X139000000Y-82250000D03*
%TD*%
D14*
%TO.P,C9,1*%
%TO.N,+3V3*%
X141500000Y-128287500D03*
%TO.P,C9,2*%
%TO.N,GND*%
X141500000Y-126212500D03*
%TD*%
%TO.P,C6,1*%
%TO.N,Net-(C6-Pad1)*%
X184019250Y-107537500D03*
%TO.P,C6,2*%
%TO.N,/InputPeripherals/ADC_CH_0*%
X184019250Y-105462500D03*
%TD*%
D16*
%TO.P,J6,1,Pin_1*%
%TO.N,Net-(J6-Pin_1)*%
X122250000Y-96000000D03*
D17*
%TO.P,J6,2,Pin_2*%
%TO.N,GND1*%
X119710000Y-96000000D03*
%TD*%
D11*
%TO.P,TP3,1,1*%
%TO.N,+5V*%
X110500000Y-83750000D03*
%TD*%
D10*
%TO.P,R18,1*%
%TO.N,Net-(U8-NEGA)*%
X145019250Y-113837500D03*
%TO.P,R18,2*%
%TO.N,Net-(C16-Pad1)*%
X145019250Y-111837500D03*
%TD*%
%TO.P,R7,1*%
%TO.N,+3V3*%
X185000000Y-92975000D03*
%TO.P,R7,2*%
%TO.N,/InputPeripherals/PB_1*%
X185000000Y-90975000D03*
%TD*%
D14*
%TO.P,C15,1*%
%TO.N,Net-(C15-Pad1)*%
X136019250Y-107500000D03*
%TO.P,C15,2*%
%TO.N,Net-(U8-NEGA)*%
X136019250Y-105425000D03*
%TD*%
D10*
%TO.P,R6,1*%
%TO.N,+3V3*%
X185000000Y-84000000D03*
%TO.P,R6,2*%
%TO.N,/InputPeripherals/PB_0*%
X185000000Y-82000000D03*
%TD*%
D18*
%TO.P,C22,1*%
%TO.N,Net-(U8-POSB)*%
X147462500Y-110837500D03*
%TO.P,C22,2*%
%TO.N,GND*%
X149537500Y-110837500D03*
%TD*%
D44*
%TO.P,U7,1,Y0*%
%TO.N,/InputPeripherals/AUX_IN_R*%
X150200000Y-121217500D03*
%TO.P,U7,2,Y2*%
%TO.N,/InputPeripherals/MIC_IN*%
X150200000Y-122487500D03*
%TO.P,U7,3,Y*%
%TO.N,Net-(U7-Y)*%
X150200000Y-123757500D03*
%TO.P,U7,4,Y3*%
%TO.N,GND*%
X150200000Y-125027500D03*
%TO.P,U7,5,Y1*%
%TO.N,/InputPeripherals/AUX_IN_L*%
X150200000Y-126297500D03*
%TO.P,U7,6,INH*%
%TO.N,GND*%
X150200000Y-127567500D03*
%TO.P,U7,7,VEE*%
%TO.N,-3V3*%
X150200000Y-128837500D03*
%TO.P,U7,8,GND*%
%TO.N,GND*%
X150200000Y-130107500D03*
%TO.P,U7,9,B*%
%TO.N,/InputPeripherals/MUX_B*%
X155800000Y-130107500D03*
%TO.P,U7,10,A*%
%TO.N,/InputPeripherals/MUX_A*%
X155800000Y-128837500D03*
%TO.P,U7,11,X3*%
%TO.N,GND*%
X155800000Y-127567500D03*
%TO.P,U7,12,X0*%
%TO.N,/InputPeripherals/AUX_IN_R*%
X155800000Y-126297500D03*
%TO.P,U7,13,X*%
%TO.N,Net-(U7-X)*%
X155800000Y-125027500D03*
%TO.P,U7,14,X1*%
%TO.N,/InputPeripherals/AUX_IN_L*%
X155800000Y-123757500D03*
%TO.P,U7,15,X2*%
%TO.N,/InputPeripherals/MIC_IN*%
X155800000Y-122487500D03*
%TO.P,U7,16,VCC*%
%TO.N,+3V3*%
X155800000Y-121217500D03*
%TD*%
D30*
%TO.P,U8,1,OUTA*%
%TO.N,Net-(U8-NEGA)*%
X140300250Y-101412500D03*
%TO.P,U8,2,NEGA*%
X140300250Y-102682500D03*
%TO.P,U8,3,POSA*%
%TO.N,Net-(U8-POSA)*%
X140300250Y-103952500D03*
%TO.P,U8,4,V-*%
%TO.N,-3V3*%
X140300250Y-105222500D03*
%TO.P,U8,5,POSB*%
%TO.N,Net-(U8-POSB)*%
X145446250Y-105222500D03*
%TO.P,U8,6,NEGB*%
%TO.N,/InputPeripherals/ADC_CH_1*%
X145446250Y-103952500D03*
%TO.P,U8,7,OUTB*%
X145446250Y-102682500D03*
%TO.P,U8,8,V+*%
%TO.N,+3V3*%
X145446250Y-101412500D03*
%TD*%
D18*
%TO.P,C8,1*%
%TO.N,Net-(U5-POSB)*%
X182981750Y-110000000D03*
%TO.P,C8,2*%
%TO.N,GND*%
X185056750Y-110000000D03*
%TD*%
D29*
%TO.P,PB0,1,1*%
%TO.N,/InputPeripherals/PB_0*%
X182250000Y-73025000D03*
X182250000Y-80975000D03*
%TO.P,PB0,2,2*%
%TO.N,GND*%
X177750000Y-73025000D03*
X177750000Y-80975000D03*
%TD*%
D11*
%TO.P,TP8,1,1*%
%TO.N,/InputPeripherals/AMP_CH_1*%
X140446250Y-116250000D03*
%TD*%
%TO.P,TP11,1,1*%
%TO.N,GND1*%
X136000000Y-93750000D03*
%TD*%
D25*
%TO.P,U1,1,GND*%
%TO.N,GND*%
X106695000Y-77290000D03*
D26*
%TO.P,U1,2,VO*%
%TO.N,+3V3*%
X106695000Y-74750000D03*
%TO.P,U1,3,VI*%
%TO.N,Net-(U1-VI)*%
X106695000Y-72210000D03*
%TD*%
D11*
%TO.P,TP7,1,1*%
%TO.N,/InputPeripherals/AUX_IN_L*%
X168750000Y-118750000D03*
%TD*%
D12*
%TO.P,C3,1*%
%TO.N,+5V*%
X118250000Y-84500000D03*
D13*
%TO.P,C3,2*%
%TO.N,GND1*%
X118250000Y-92000000D03*
%TD*%
D15*
%TO.P,R14,1*%
%TO.N,Net-(U4-NEGA)*%
X162519250Y-110337500D03*
%TO.P,R14,2*%
%TO.N,Net-(U7-X)*%
X162519250Y-112337500D03*
%TD*%
D14*
%TO.P,C5,1*%
%TO.N,Net-(C5-Pad1)*%
X172056750Y-106537500D03*
%TO.P,C5,2*%
%TO.N,Net-(U5-NEGA)*%
X172056750Y-104462500D03*
%TD*%
D45*
%TO.P,Q1,1,C*%
%TO.N,+5V*%
X125730000Y-92750000D03*
D46*
%TO.P,Q1,2,B*%
%TO.N,Net-(Q1-B)*%
X127000000Y-92750000D03*
%TO.P,Q1,3,E*%
%TO.N,Net-(J6-Pin_1)*%
X128270000Y-92750000D03*
%TD*%
D42*
%TO.P,D5,1,K*%
%TO.N,GND1*%
X131750000Y-90750000D03*
D43*
%TO.P,D5,2,A*%
%TO.N,GND*%
X131750000Y-80590000D03*
%TD*%
D29*
%TO.P,EN1,1,1*%
%TO.N,GND*%
X133750000Y-76975000D03*
X133750000Y-69025000D03*
%TO.P,EN1,2,2*%
%TO.N,Net-(U3-EN)*%
X138250000Y-76975000D03*
X138250000Y-69025000D03*
%TD*%
D39*
%TO.P,C23,1*%
%TO.N,+3V3*%
X181000000Y-67962500D03*
%TO.P,C23,2*%
%TO.N,GND*%
X181000000Y-70037500D03*
%TD*%
D47*
%TO.N,GND*%
X181000000Y-71250000D03*
X141625000Y-122125000D03*
X135250000Y-69000000D03*
X147419265Y-72169265D03*
X173750000Y-85000000D03*
X148750000Y-124500000D03*
X177500000Y-79750000D03*
X177750000Y-91750000D03*
X160750000Y-103000000D03*
X159000000Y-97700000D03*
X170250000Y-109250000D03*
X147500000Y-99987500D03*
X177250000Y-78250000D03*
X158750000Y-111500000D03*
X135000000Y-76250000D03*
X155500000Y-116500000D03*
X157000000Y-90000000D03*
X186750000Y-90750000D03*
X157250000Y-127250000D03*
X177250000Y-75250000D03*
X184500000Y-111250000D03*
X152000000Y-87000000D03*
X173750000Y-73000000D03*
X181250000Y-99250000D03*
X157750000Y-103000000D03*
X177750000Y-74500000D03*
X178000000Y-71250000D03*
X150750000Y-110500000D03*
X186250000Y-90000000D03*
X178250000Y-79250000D03*
X149000000Y-127250000D03*
X138085360Y-110414640D03*
X148750000Y-129750000D03*
X176500000Y-80250000D03*
%TO.N,+3V3*%
X151000000Y-94000000D03*
X165500000Y-117250000D03*
X167500000Y-117250000D03*
X151000000Y-91000000D03*
X142000000Y-74750000D03*
%TO.N,/InputPeripherals/ADC_CH_0*%
X162799265Y-100200735D03*
X171500000Y-100250000D03*
%TO.N,Net-(U5-POSA)*%
X177549265Y-106700735D03*
X177250000Y-104400000D03*
%TO.N,/InputPeripherals/ADC_CH_1*%
X158850000Y-104500000D03*
X158900000Y-100250000D03*
%TO.N,-3V3*%
X139000000Y-105000000D03*
X164424265Y-101825735D03*
X150500000Y-100100000D03*
X176500000Y-100000000D03*
X151750000Y-100650000D03*
X151750000Y-129250000D03*
%TO.N,/OutputPeripherals/LED_1*%
X172950000Y-85750000D03*
X166000000Y-89500000D03*
%TO.N,/OutputPeripherals/LED_0*%
X171750000Y-77500000D03*
X167750000Y-78000000D03*
%TO.N,/InputPeripherals/AUX_IN_R*%
X151724485Y-125000000D03*
X154500000Y-125000000D03*
%TO.N,/InputPeripherals/AUX_IN_L*%
X154500000Y-123750000D03*
X152324485Y-123750000D03*
%TO.N,/JTAG_TDI*%
X150500000Y-81750000D03*
X150000000Y-84500000D03*
X163250000Y-82237850D03*
%TO.N,/JTAG_TCK*%
X153250000Y-84500000D03*
%TO.N,/JTAG_TMS*%
X164000000Y-82837850D03*
%TO.N,/JTAG_TDO*%
X162000000Y-84500000D03*
%TO.N,Net-(J8-Pin_2)*%
X183500000Y-76000000D03*
X183500000Y-87500000D03*
X168500000Y-75750000D03*
%TO.N,Net-(J8-Pin_3)*%
X171500000Y-72400000D03*
X189750000Y-77000000D03*
X167750000Y-72400000D03*
X171500000Y-76500000D03*
%TO.N,/InputPeripherals/AMP_CH_0*%
X163000000Y-108750000D03*
%TO.N,/OutputPeripherals/SIG_ACTIVE_LED*%
X161000000Y-80500000D03*
X119500000Y-88250000D03*
X161000000Y-84250000D03*
X148901472Y-91000000D03*
%TO.N,/InputPeripherals/PB_0*%
X154250000Y-83500000D03*
X154250000Y-79000000D03*
X182500000Y-82250000D03*
X172299265Y-82299265D03*
X186150000Y-82000000D03*
%TO.N,/InputPeripherals/PB_1*%
X184783370Y-91875000D03*
X173000000Y-83000000D03*
X164250000Y-77750000D03*
X168500000Y-78500000D03*
X182250000Y-83250000D03*
X182475000Y-91600000D03*
%TO.N,Net-(U7-Y)*%
X155025000Y-115125000D03*
X149350000Y-120250000D03*
%TO.N,Net-(U3-EN)*%
X143000000Y-74000000D03*
X142750000Y-69000000D03*
%TO.N,/OutputPeripherals/SIG_PASSIVE_LED*%
X162621471Y-81191788D03*
X150000000Y-91000000D03*
X162600000Y-83401471D03*
X150500000Y-85500000D03*
X149799265Y-87350000D03*
%TO.N,Net-(U4-NEGA)*%
X163900000Y-110250000D03*
%TO.N,/InputPeripherals/MUX_A*%
X166750000Y-124000000D03*
X150750000Y-87350000D03*
X151250000Y-81190000D03*
X159750000Y-69250000D03*
X167250000Y-127250000D03*
X159750000Y-81000000D03*
%TO.N,/InputPeripherals/ADC_RDY*%
X165828190Y-100913975D03*
X163549265Y-100950735D03*
X164500000Y-84500000D03*
X162100000Y-76750000D03*
%TO.N,/InputPeripherals/MUX_B*%
X151500000Y-87750000D03*
X167750000Y-124000000D03*
X168050003Y-127250000D03*
X146000000Y-87000000D03*
%TO.N,/I2C_SCL_EXT*%
X180250000Y-93000000D03*
X152250000Y-70750000D03*
X176209314Y-71600000D03*
X161500000Y-93000000D03*
X168750000Y-71600000D03*
%TO.N,/I2C_SDA_EXT*%
X172250000Y-74230000D03*
X151500000Y-73500000D03*
X161500000Y-92100000D03*
X171250000Y-92100000D03*
X167750000Y-74250000D03*
%TD*%
D48*
%TO.N,GND*%
X162192250Y-105202500D02*
X160750000Y-103760250D01*
X126500000Y-61500000D02*
X127000000Y-61000000D01*
D49*
X109250000Y-61350000D02*
X112350000Y-58250000D01*
D48*
X133750000Y-69025000D02*
X130900000Y-69025000D01*
X186750000Y-90750000D02*
X187250000Y-90250000D01*
X127500000Y-65625000D02*
X127500000Y-61500000D01*
X147419265Y-75165479D02*
X147419265Y-72169265D01*
X160250000Y-93600000D02*
X160250000Y-91750000D01*
X147487500Y-100000000D02*
X145000000Y-100000000D01*
X187250000Y-82750000D02*
X187540000Y-82460000D01*
X128000000Y-62000000D02*
X127000000Y-61000000D01*
X181317500Y-99182500D02*
X181250000Y-99250000D01*
X150200000Y-127567500D02*
X149317500Y-127567500D01*
X175000000Y-85000000D02*
X173750000Y-85000000D01*
X176500000Y-80250000D02*
X176500000Y-83500000D01*
X149107500Y-130107500D02*
X148750000Y-129750000D01*
X178000000Y-70000000D02*
X178000000Y-71250000D01*
X133750000Y-76975000D02*
X134275000Y-76975000D01*
X187250000Y-90250000D02*
X187250000Y-82750000D01*
X158500000Y-94850000D02*
X159000000Y-94850000D01*
X142712500Y-67750000D02*
X130250000Y-67750000D01*
X186250000Y-90000000D02*
X186750000Y-89500000D01*
X130250000Y-67750000D02*
X128000000Y-65500000D01*
X145082500Y-67880000D02*
X148850000Y-67880000D01*
X130900000Y-69025000D02*
X127500000Y-65625000D01*
X156932500Y-127567500D02*
X157250000Y-127250000D01*
X157446250Y-103303750D02*
X157750000Y-103000000D01*
X128000000Y-65500000D02*
X128000000Y-62000000D01*
X141625000Y-122125000D02*
X141500000Y-122250000D01*
X177750000Y-92950000D02*
X177750000Y-91750000D01*
X138085360Y-110414640D02*
X137750000Y-110750000D01*
X155800000Y-127567500D02*
X156932500Y-127567500D01*
X181000000Y-70037500D02*
X181000000Y-71250000D01*
X143337500Y-71625000D02*
X142375000Y-71625000D01*
X177750000Y-74500000D02*
X177750000Y-78750000D01*
X177750000Y-73025000D02*
X177750000Y-74500000D01*
D50*
X135920000Y-80670000D02*
X135750000Y-80670000D01*
D48*
X182519250Y-99182500D02*
X181317500Y-99182500D01*
X160750000Y-103760250D02*
X160750000Y-103000000D01*
X145600000Y-84245000D02*
X145600000Y-76984744D01*
X135750000Y-80670000D02*
X137420000Y-80670000D01*
X149537500Y-110837500D02*
X150412500Y-110837500D01*
X145600000Y-76984744D02*
X147419265Y-75165479D01*
X143962500Y-71000000D02*
X143337500Y-71625000D01*
X171019250Y-110019250D02*
X170250000Y-109250000D01*
X186750000Y-89500000D02*
X186750000Y-76230000D01*
X177250000Y-75250000D02*
X177250000Y-78250000D01*
X157500000Y-98300000D02*
X157925000Y-98300000D01*
X150412500Y-110837500D02*
X150750000Y-110500000D01*
X185056750Y-110000000D02*
X185056750Y-110693250D01*
X157875000Y-112375000D02*
X158750000Y-111500000D01*
X156000000Y-117000000D02*
X155500000Y-116500000D01*
X150200000Y-125027500D02*
X149277500Y-125027500D01*
D49*
X124250000Y-58250000D02*
X127000000Y-61000000D01*
D48*
X151890000Y-86890000D02*
X152000000Y-87000000D01*
X143962500Y-69000000D02*
X142712500Y-67750000D01*
X157000000Y-90000000D02*
X157962500Y-90962500D01*
X149317500Y-127567500D02*
X149000000Y-127250000D01*
X159000000Y-94850000D02*
X160250000Y-93600000D01*
X157000000Y-98375000D02*
X157075000Y-98300000D01*
X133775000Y-69000000D02*
X133750000Y-69025000D01*
D50*
X135920000Y-80670000D02*
X136000000Y-80750000D01*
D48*
X157925000Y-98300000D02*
X158000000Y-98375000D01*
X171019250Y-110500000D02*
X171019250Y-110019250D01*
X150200000Y-130107500D02*
X149107500Y-130107500D01*
X143962500Y-69000000D02*
X145082500Y-67880000D01*
D49*
X112350000Y-58250000D02*
X124250000Y-58250000D01*
D48*
X176500000Y-83500000D02*
X177750000Y-83500000D01*
X147500000Y-99987500D02*
X147487500Y-100000000D01*
X160250000Y-91750000D02*
X159462500Y-90962500D01*
X166350000Y-67880000D02*
X148850000Y-67880000D01*
X187540000Y-82460000D02*
X188975000Y-82460000D01*
X157962500Y-90962500D02*
X158750000Y-90962500D01*
X143025000Y-86820000D02*
X145600000Y-84245000D01*
X140000000Y-74000000D02*
X135250000Y-74000000D01*
X157446250Y-103932500D02*
X157446250Y-103303750D01*
X151890000Y-85640000D02*
X151890000Y-86890000D01*
X175000000Y-73000000D02*
X173750000Y-73000000D01*
X186750000Y-76230000D02*
X187692500Y-76230000D01*
X141500000Y-122250000D02*
X141500000Y-126212500D01*
X157075000Y-98300000D02*
X157500000Y-98300000D01*
X137420000Y-80670000D02*
X139000000Y-82250000D01*
X156000000Y-117625000D02*
X156000000Y-117000000D01*
X158100000Y-97700000D02*
X157500000Y-98300000D01*
X177750000Y-80975000D02*
X177750000Y-80000000D01*
X157000000Y-99150000D02*
X157000000Y-98375000D01*
X137750000Y-110750000D02*
X137750000Y-111462500D01*
X187692500Y-76230000D02*
X188842500Y-75080000D01*
X127000000Y-65750000D02*
X127000000Y-61000000D01*
X159000000Y-97700000D02*
X158100000Y-97700000D01*
X149277500Y-125027500D02*
X148750000Y-124500000D01*
X134275000Y-76975000D02*
X135000000Y-76250000D01*
X127500000Y-61500000D02*
X127000000Y-61000000D01*
X177750000Y-85000000D02*
X177750000Y-83500000D01*
X158000000Y-98375000D02*
X158000000Y-99150000D01*
X135250000Y-74000000D02*
X127000000Y-65750000D01*
X177750000Y-80000000D02*
X177500000Y-79750000D01*
X157519250Y-112375000D02*
X157875000Y-112375000D01*
X177750000Y-78750000D02*
X178250000Y-79250000D01*
X159462500Y-90962500D02*
X158250000Y-90962500D01*
X185056750Y-110693250D02*
X184500000Y-111250000D01*
X162592250Y-105202500D02*
X162192250Y-105202500D01*
X142375000Y-71625000D02*
X140000000Y-74000000D01*
X135250000Y-69000000D02*
X133775000Y-69000000D01*
D49*
%TO.N,Net-(U1-VI)*%
X108895000Y-80892323D02*
X106695000Y-83092323D01*
X120250000Y-61350000D02*
X120250000Y-64817621D01*
D51*
X115250000Y-63500000D02*
X113750000Y-63500000D01*
X117400000Y-61350000D02*
X115250000Y-63500000D01*
X120250000Y-61350000D02*
X120250000Y-62683452D01*
D49*
X120250000Y-64817621D02*
X108895000Y-76172621D01*
X120250000Y-67500000D02*
X126000000Y-67500000D01*
X126000000Y-67500000D02*
X127000000Y-68500000D01*
D51*
X107390430Y-72210000D02*
X106695000Y-72210000D01*
D49*
X108895000Y-76172621D02*
X108895000Y-80892323D01*
D51*
X113750000Y-63500000D02*
X112000000Y-65250000D01*
X112000000Y-65250000D02*
X112000000Y-67600430D01*
X112000000Y-67600430D02*
X107390430Y-72210000D01*
X120250000Y-61350000D02*
X117400000Y-61350000D01*
D49*
X120250000Y-67500000D02*
X120250000Y-61350000D01*
D48*
%TO.N,+3V3*%
X151000000Y-118250000D02*
X138500000Y-118250000D01*
D50*
X148850000Y-69150000D02*
X147887500Y-69150000D01*
D48*
X153500000Y-94250000D02*
X153000000Y-94250000D01*
X141875000Y-78050000D02*
X142950000Y-78050000D01*
X114250000Y-74817621D02*
X114250000Y-75750000D01*
X141097006Y-98750000D02*
X153250000Y-98750000D01*
X155550000Y-119250000D02*
X156000000Y-119700000D01*
X142950000Y-78050000D02*
X145000000Y-76000000D01*
X153250000Y-98750000D02*
X154000000Y-98000000D01*
D51*
X140450000Y-74800000D02*
X142000000Y-73250000D01*
D48*
X141475000Y-128312500D02*
X141500000Y-128287500D01*
D50*
X140750000Y-97250000D02*
X152000000Y-97250000D01*
D48*
X138500000Y-118250000D02*
X134994250Y-114744250D01*
X157519250Y-111487500D02*
X156162500Y-111487500D01*
X154000000Y-93750000D02*
X152250000Y-93750000D01*
X147087500Y-101412500D02*
X149000000Y-99500000D01*
X154350000Y-113300000D02*
X154350000Y-114900000D01*
D50*
X130477818Y-63811372D02*
X133496446Y-66830000D01*
X147887500Y-69150000D02*
X146037500Y-71000000D01*
D48*
X155800000Y-119900000D02*
X156000000Y-119700000D01*
X114505993Y-76005993D02*
X118505993Y-76005993D01*
D50*
X103947562Y-64155560D02*
X111303122Y-56800000D01*
X152000000Y-97250000D02*
X152500000Y-96750000D01*
D48*
X157519250Y-110300000D02*
X157519250Y-107815500D01*
X170800000Y-68000000D02*
X173750000Y-68000000D01*
D50*
X111303122Y-56800000D02*
X124850610Y-56800000D01*
D48*
X187452500Y-68850000D02*
X188842500Y-67460000D01*
X184000000Y-91975000D02*
X185000000Y-92975000D01*
X155800000Y-121217500D02*
X155800000Y-119900000D01*
D50*
X106695000Y-74750000D02*
X103947562Y-72002562D01*
D48*
X187692500Y-68850000D02*
X188842500Y-70000000D01*
X170800000Y-68000000D02*
X171800000Y-67000000D01*
D50*
X169630000Y-66830000D02*
X170800000Y-68000000D01*
D48*
X157519250Y-107815500D02*
X157446250Y-107742500D01*
X185000000Y-84000000D02*
X185000000Y-89390256D01*
X141425000Y-78500000D02*
X141875000Y-78050000D01*
D52*
X128370000Y-88620000D02*
X137120000Y-88620000D01*
D48*
X154350000Y-114900000D02*
X151000000Y-118250000D01*
X181250000Y-67000000D02*
X183100000Y-68850000D01*
D50*
X133496446Y-66830000D02*
X169630000Y-66830000D01*
D48*
X114250000Y-75750000D02*
X114505993Y-76005993D01*
D50*
X181080000Y-66830000D02*
X181250000Y-67000000D01*
D48*
X154000000Y-98000000D02*
X154000000Y-93750000D01*
D51*
X145075000Y-72425000D02*
X146037500Y-71462500D01*
D48*
X134000000Y-104750000D02*
X134000000Y-115250000D01*
X114250000Y-75761986D02*
X114988014Y-76500000D01*
D52*
X137120000Y-88620000D02*
X142500000Y-94000000D01*
D48*
X158750000Y-93037500D02*
X156562500Y-90850000D01*
D50*
X146187500Y-69150000D02*
X146037500Y-69000000D01*
D48*
X138250000Y-118750000D02*
X134500000Y-115000000D01*
D51*
X114250000Y-74817621D02*
X114267621Y-74800000D01*
D48*
X190525000Y-88530000D02*
X188975000Y-90080000D01*
X153000000Y-94250000D02*
X152250000Y-94250000D01*
X153000000Y-99500000D02*
X154500000Y-98000000D01*
X190525000Y-74222500D02*
X190525000Y-88530000D01*
X142000000Y-74750000D02*
X142000000Y-73250000D01*
X171800000Y-67000000D02*
X177250000Y-67000000D01*
D52*
X114567621Y-74817621D02*
X128370000Y-88620000D01*
D50*
X124850610Y-56800000D02*
X130477818Y-62427208D01*
D51*
X114267621Y-74800000D02*
X140450000Y-74800000D01*
D48*
X153000000Y-94250000D02*
X153000000Y-97750000D01*
X185000000Y-89390256D02*
X184000000Y-90390256D01*
X158000000Y-93287500D02*
X158250000Y-93037500D01*
X183100000Y-68850000D02*
X187452500Y-68850000D01*
X153000000Y-97750000D02*
X141000000Y-97750000D01*
D50*
X152500000Y-96750000D02*
X152500000Y-94500000D01*
D48*
X188842500Y-72540000D02*
X190525000Y-74222500D01*
X134994250Y-114744250D02*
X134994250Y-104852756D01*
D52*
X114250000Y-74817621D02*
X114567621Y-74817621D01*
D51*
X146037500Y-71462500D02*
X146037500Y-69000000D01*
D48*
X181250000Y-67487500D02*
X186302500Y-72540000D01*
X180750000Y-67000000D02*
X181000000Y-67250000D01*
X118750000Y-73750000D02*
X115317621Y-73750000D01*
D51*
X142000000Y-73250000D02*
X142825000Y-72425000D01*
D48*
X114988014Y-76500000D02*
X118250000Y-76500000D01*
X152500000Y-94000000D02*
X152250000Y-94250000D01*
X153250000Y-98250000D02*
X153500000Y-98000000D01*
X134994250Y-104852756D02*
X141097006Y-98750000D01*
D52*
X151000000Y-94000000D02*
X153250000Y-94000000D01*
D48*
X181000000Y-67250000D02*
X181000000Y-67962500D01*
D50*
X152500000Y-94500000D02*
X152250000Y-94250000D01*
D48*
X179403994Y-117250000D02*
X167500000Y-117250000D01*
X188975000Y-90080000D02*
X186080000Y-92975000D01*
D50*
X130477818Y-62427208D02*
X130477818Y-63811372D01*
D48*
X118250000Y-76500000D02*
X120750000Y-79000000D01*
X151150000Y-90850000D02*
X151000000Y-91000000D01*
X154500000Y-94550000D02*
X153950000Y-94000000D01*
D52*
X153250000Y-94000000D02*
X153500000Y-94250000D01*
D48*
X114250000Y-74817621D02*
X114250000Y-75761986D01*
X152250000Y-93750000D02*
X152250000Y-94250000D01*
X181250000Y-67000000D02*
X181250000Y-67487500D01*
X141000000Y-98250000D02*
X153250000Y-98250000D01*
X137745000Y-79000000D02*
X143025000Y-84280000D01*
X153500000Y-98000000D02*
X153500000Y-94250000D01*
X154500000Y-98000000D02*
X154500000Y-94550000D01*
X134500000Y-104750000D02*
X141000000Y-98250000D01*
X164000000Y-118750000D02*
X138250000Y-118750000D01*
X177250000Y-67000000D02*
X180750000Y-67000000D01*
X182451750Y-101190000D02*
X182519250Y-101257500D01*
X184000000Y-90390256D02*
X184000000Y-91975000D01*
X157519250Y-110300000D02*
X157519250Y-111487500D01*
D51*
X142825000Y-72425000D02*
X145075000Y-72425000D01*
D48*
X186302500Y-72540000D02*
X188842500Y-72540000D01*
X178000000Y-67750000D02*
X178000000Y-68000000D01*
D52*
X142500000Y-94000000D02*
X151000000Y-94000000D01*
D48*
X141000000Y-97750000D02*
X134000000Y-104750000D01*
X165500000Y-117250000D02*
X164000000Y-118750000D01*
D50*
X169630000Y-66830000D02*
X181080000Y-66830000D01*
D48*
X186080000Y-92975000D02*
X185000000Y-92975000D01*
X156162500Y-111487500D02*
X154350000Y-113300000D01*
X149000000Y-99500000D02*
X153000000Y-99500000D01*
X158000000Y-94850000D02*
X158000000Y-93287500D01*
X121000000Y-78500000D02*
X141425000Y-78500000D01*
X187452500Y-68850000D02*
X187692500Y-68850000D01*
X180592250Y-101190000D02*
X182451750Y-101190000D01*
D50*
X103947562Y-72002562D02*
X103947562Y-64155560D01*
D48*
X120750000Y-79000000D02*
X137745000Y-79000000D01*
X138000000Y-119250000D02*
X155550000Y-119250000D01*
X145446250Y-101412500D02*
X147087500Y-101412500D01*
X182519250Y-101257500D02*
X185944250Y-104682500D01*
X118505993Y-76005993D02*
X121000000Y-78500000D01*
X185944250Y-104682500D02*
X185944250Y-110709744D01*
D50*
X141475000Y-130975000D02*
X133550000Y-123050000D01*
D48*
X144337500Y-101412500D02*
X145446250Y-101412500D01*
X115317621Y-73750000D02*
X114250000Y-74817621D01*
X142925000Y-100000000D02*
X144337500Y-101412500D01*
X177250000Y-67000000D02*
X178000000Y-67750000D01*
D50*
X148850000Y-69150000D02*
X146187500Y-69150000D01*
D48*
X153950000Y-94000000D02*
X152500000Y-94000000D01*
X141475000Y-130975000D02*
X141475000Y-128312500D01*
D50*
X133550000Y-104450000D02*
X140750000Y-97250000D01*
X133550000Y-123050000D02*
X133550000Y-104450000D01*
D48*
X134500000Y-115000000D02*
X134500000Y-104750000D01*
X185944250Y-110709744D02*
X179403994Y-117250000D01*
X156562500Y-90850000D02*
X151150000Y-90850000D01*
X134000000Y-115250000D02*
X138000000Y-119250000D01*
%TO.N,+5V*%
X108617677Y-85632323D02*
X110500000Y-83750000D01*
D49*
X118250000Y-84500000D02*
X113900000Y-88850000D01*
X117117677Y-85632323D02*
X118250000Y-84500000D01*
D51*
X118250000Y-84500000D02*
X125730000Y-91980000D01*
D49*
X113900000Y-88850000D02*
X113900000Y-95180000D01*
D51*
X125730000Y-91980000D02*
X125730000Y-92750000D01*
D49*
X113900000Y-95180000D02*
X113080000Y-96000000D01*
X106695000Y-85632323D02*
X117117677Y-85632323D01*
D48*
X106695000Y-85632323D02*
X108617677Y-85632323D01*
X118250000Y-84500000D02*
X118500000Y-84500000D01*
%TO.N,GND1*%
X136000000Y-93500000D02*
X135750000Y-93250000D01*
X136000000Y-93750000D02*
X136000000Y-93500000D01*
X135750000Y-93250000D02*
X135750000Y-90830000D01*
%TO.N,Net-(U5-NEGA)*%
X175446250Y-102460000D02*
X174059250Y-102460000D01*
X174446250Y-103130000D02*
X175116250Y-102460000D01*
X178619250Y-106922191D02*
X177797794Y-106100735D01*
X174946985Y-106100735D02*
X174446250Y-105600000D01*
X180000000Y-114000000D02*
X178619250Y-112619250D01*
X178619250Y-112619250D02*
X178619250Y-106922191D01*
X175116250Y-102460000D02*
X175446250Y-102460000D01*
X174310000Y-101190000D02*
X175446250Y-101190000D01*
X174059250Y-102460000D02*
X172056750Y-104462500D01*
X177797794Y-106100735D02*
X174946985Y-106100735D01*
X174446250Y-105600000D02*
X174446250Y-103130000D01*
X172056750Y-104462500D02*
X172056750Y-103443250D01*
X172056750Y-103443250D02*
X174310000Y-101190000D01*
%TO.N,Net-(C5-Pad1)*%
X175556750Y-111500000D02*
X175556750Y-109500000D01*
X172594250Y-106537500D02*
X175556750Y-109500000D01*
X172056750Y-106537500D02*
X172594250Y-106537500D01*
%TO.N,Net-(C6-Pad1)*%
X179019250Y-108500000D02*
X180019250Y-107500000D01*
X180019250Y-107500000D02*
X183981750Y-107500000D01*
X183981750Y-107500000D02*
X184019250Y-107537500D01*
X179019250Y-111019250D02*
X179019250Y-108500000D01*
X180000000Y-112000000D02*
X179019250Y-111019250D01*
%TO.N,/InputPeripherals/ADC_CH_0*%
X184019250Y-105462500D02*
X182286750Y-103730000D01*
X159425000Y-98300000D02*
X158575000Y-98300000D01*
X173250000Y-100750000D02*
X172000000Y-100750000D01*
X158575000Y-98300000D02*
X158500000Y-98375000D01*
X171500000Y-100000000D02*
X172500000Y-99000000D01*
X180192250Y-102460000D02*
X176732250Y-99000000D01*
X159425000Y-99675000D02*
X159425000Y-98300000D01*
X162750000Y-100250000D02*
X160000000Y-100250000D01*
X160000000Y-100250000D02*
X159425000Y-99675000D01*
X171500000Y-100250000D02*
X171500000Y-100000000D01*
X172000000Y-100750000D02*
X171500000Y-100250000D01*
X182286750Y-103730000D02*
X180592250Y-103730000D01*
X180592250Y-102460000D02*
X180592250Y-103730000D01*
X158500000Y-98375000D02*
X158500000Y-99150000D01*
X176732250Y-99000000D02*
X172500000Y-99000000D01*
X180592250Y-102460000D02*
X180192250Y-102460000D01*
X162799265Y-100200735D02*
X162750000Y-100250000D01*
%TO.N,Net-(U5-POSA)*%
X176556750Y-108500000D02*
X176556750Y-112084744D01*
X175556750Y-107500000D02*
X176556750Y-108500000D01*
X176556750Y-112084744D02*
X176241494Y-112400000D01*
X173094250Y-111094250D02*
X173094250Y-110500000D01*
X175446250Y-103730000D02*
X176730000Y-103730000D01*
X176241494Y-112400000D02*
X174400000Y-112400000D01*
X174400000Y-112400000D02*
X173094250Y-111094250D01*
X177549265Y-106700735D02*
X176750000Y-107500000D01*
X176750000Y-107500000D02*
X175556750Y-107500000D01*
X177250000Y-104250000D02*
X177250000Y-104400000D01*
X173094250Y-110500000D02*
X173094250Y-109962500D01*
X176730000Y-103730000D02*
X177250000Y-104250000D01*
%TO.N,Net-(U5-POSB)*%
X185044250Y-108109744D02*
X183153994Y-110000000D01*
X184728994Y-106650000D02*
X185044250Y-106965256D01*
X180592250Y-105000000D02*
X182242250Y-106650000D01*
X185044250Y-106965256D02*
X185044250Y-108109744D01*
X182481750Y-109500000D02*
X182981750Y-110000000D01*
X180019250Y-109500000D02*
X182481750Y-109500000D01*
X182242250Y-106650000D02*
X184728994Y-106650000D01*
X183153994Y-110000000D02*
X182981750Y-110000000D01*
%TO.N,Net-(U8-NEGA)*%
X144019250Y-112837500D02*
X145019250Y-113837500D01*
X140700250Y-102682500D02*
X144019250Y-106001500D01*
X144019250Y-106001500D02*
X144019250Y-112837500D01*
X136019250Y-105425000D02*
X138761750Y-102682500D01*
X140300250Y-102682500D02*
X140700250Y-102682500D01*
X140300250Y-101412500D02*
X140300250Y-102682500D01*
X138761750Y-102682500D02*
X140300250Y-102682500D01*
%TO.N,Net-(C15-Pad1)*%
X140519250Y-110000000D02*
X140019250Y-109500000D01*
X140519250Y-112000000D02*
X139519250Y-113000000D01*
X139519250Y-113000000D02*
X139519250Y-113730750D01*
X137000000Y-114750000D02*
X136250000Y-114000000D01*
X140019250Y-109500000D02*
X138019250Y-109500000D01*
X136250000Y-114000000D02*
X136250000Y-110750000D01*
X140333890Y-109814640D02*
X140519250Y-110000000D01*
X138500000Y-114750000D02*
X137000000Y-114750000D01*
X136250000Y-110750000D02*
X137185360Y-109814640D01*
X137185360Y-109814640D02*
X140333890Y-109814640D01*
X139519250Y-113730750D02*
X138500000Y-114750000D01*
X138019250Y-109500000D02*
X136019250Y-107500000D01*
%TO.N,Net-(C16-Pad1)*%
X145019250Y-109837500D02*
X146250000Y-111068250D01*
X146250000Y-111500000D02*
X147000000Y-112250000D01*
X150000000Y-112250000D02*
X151350000Y-110900000D01*
X145019250Y-111837500D02*
X145019250Y-109837500D01*
X151350000Y-110900000D02*
X151350000Y-110205750D01*
X147000000Y-112250000D02*
X150000000Y-112250000D01*
X151350000Y-110205750D02*
X149019250Y-107875000D01*
X146250000Y-111068250D02*
X146250000Y-111500000D01*
%TO.N,/InputPeripherals/ADC_CH_1*%
X156000000Y-103000000D02*
X145763750Y-103000000D01*
X156446250Y-103446250D02*
X156000000Y-103000000D01*
X149019250Y-105800000D02*
X147171750Y-103952500D01*
X158817500Y-104532500D02*
X156446250Y-104532500D01*
X145446250Y-102682500D02*
X145446250Y-103952500D01*
X147171750Y-103952500D02*
X145446250Y-103952500D01*
X159000000Y-100150000D02*
X159000000Y-99150000D01*
X149067500Y-102682500D02*
X150000000Y-101750000D01*
X158850000Y-104500000D02*
X158817500Y-104532500D01*
X145763750Y-103000000D02*
X145446250Y-102682500D01*
X145446250Y-102682500D02*
X149067500Y-102682500D01*
X156446250Y-104532500D02*
X156446250Y-103446250D01*
X158900000Y-100250000D02*
X159000000Y-100150000D01*
%TO.N,-3V3*%
X155500000Y-92500000D02*
X155250000Y-92250000D01*
X178000000Y-101500000D02*
X176500000Y-100000000D01*
X151587500Y-128837500D02*
X151750000Y-129000000D01*
X155250000Y-92250000D02*
X152250000Y-92250000D01*
X164348530Y-101750000D02*
X157250000Y-101750000D01*
X162592250Y-103932500D02*
X160909750Y-102250000D01*
X151750000Y-129000000D02*
X151750000Y-129250000D01*
X152000000Y-91250000D02*
X151000000Y-92250000D01*
X156000000Y-92000000D02*
X155750000Y-91750000D01*
X140300250Y-105222500D02*
X139222500Y-105222500D01*
D51*
X129750000Y-81722600D02*
X134947400Y-86920000D01*
D48*
X156500000Y-92000000D02*
X155750000Y-91250000D01*
X156500000Y-101000000D02*
X156500000Y-92000000D01*
X150200000Y-128837500D02*
X151587500Y-128837500D01*
X155750000Y-91750000D02*
X152250000Y-91750000D01*
X157250000Y-102250000D02*
X156000000Y-101000000D01*
X155750000Y-91250000D02*
X152000000Y-91250000D01*
X155500000Y-99750000D02*
X155500000Y-92500000D01*
X160909750Y-102250000D02*
X157250000Y-102250000D01*
X154750000Y-92750000D02*
X152750000Y-92750000D01*
X154600000Y-100650000D02*
X155500000Y-99750000D01*
D51*
X128527401Y-80500000D02*
X129750000Y-81722599D01*
D48*
X177750000Y-105000000D02*
X178000000Y-104750000D01*
X175446250Y-105000000D02*
X177750000Y-105000000D01*
X154150000Y-100100000D02*
X155000000Y-99250000D01*
D51*
X137670000Y-86920000D02*
X143000000Y-92250000D01*
D48*
X152250000Y-91750000D02*
X151750000Y-92250000D01*
X157250000Y-101750000D02*
X156500000Y-101000000D01*
X178000000Y-104750000D02*
X178000000Y-101500000D01*
X164424265Y-101825735D02*
X164348530Y-101750000D01*
X155000000Y-93000000D02*
X154750000Y-92750000D01*
X151750000Y-100650000D02*
X154600000Y-100650000D01*
D51*
X143000000Y-92250000D02*
X152250000Y-92250000D01*
X129750000Y-81722599D02*
X129750000Y-81722600D01*
D48*
X155000000Y-99250000D02*
X155000000Y-93000000D01*
X156000000Y-101000000D02*
X156000000Y-92000000D01*
D51*
X134947400Y-86920000D02*
X137670000Y-86920000D01*
D48*
X150500000Y-100100000D02*
X154150000Y-100100000D01*
X152750000Y-92750000D02*
X152250000Y-92250000D01*
X139222500Y-105222500D02*
X139000000Y-105000000D01*
%TO.N,Net-(U8-POSA)*%
X139834506Y-111100000D02*
X141003994Y-111100000D01*
X139198971Y-103952500D02*
X138250000Y-104901471D01*
X141519250Y-110584744D02*
X141519250Y-109000000D01*
X141003994Y-111100000D02*
X141519250Y-110584744D01*
X138250000Y-105730750D02*
X140519250Y-108000000D01*
X138000000Y-112934506D02*
X139834506Y-111100000D01*
X138250000Y-104901471D02*
X138250000Y-105730750D01*
X138000000Y-113500000D02*
X138000000Y-112934506D01*
X140300250Y-103952500D02*
X139198971Y-103952500D01*
X141519250Y-109000000D02*
X140519250Y-108000000D01*
%TO.N,Net-(J3-Pin_2)*%
X144000000Y-130960000D02*
X144015000Y-130975000D01*
X144000000Y-128287500D02*
X144000000Y-130960000D01*
%TO.N,/InputPeripherals/MIC_IN*%
X145955000Y-128167500D02*
X144000000Y-126212500D01*
X153512500Y-122487500D02*
X152924485Y-123075515D01*
X151100000Y-128167500D02*
X145955000Y-128167500D01*
X152924485Y-126343015D02*
X151100000Y-128167500D01*
X144050000Y-126162500D02*
X144000000Y-126212500D01*
X155800000Y-122487500D02*
X153512500Y-122487500D01*
X147725000Y-122487500D02*
X150200000Y-122487500D01*
X147040000Y-126162500D02*
X144050000Y-126162500D01*
X152924485Y-123075515D02*
X152924485Y-126343015D01*
X150200000Y-122487500D02*
X149900000Y-122487500D01*
X144000000Y-126212500D02*
X147725000Y-122487500D01*
%TO.N,Net-(U8-POSB)*%
X147462500Y-110280750D02*
X145019250Y-107837500D01*
X145446250Y-105222500D02*
X145446250Y-107410500D01*
X147462500Y-110837500D02*
X147462500Y-110280750D01*
X145446250Y-107410500D02*
X145019250Y-107837500D01*
%TO.N,Net-(D7-K)*%
X175000000Y-89000000D02*
X175000000Y-87000000D01*
%TO.N,/OutputPeripherals/LED_1*%
X172950000Y-89000000D02*
X172950000Y-85750000D01*
X166000000Y-89500000D02*
X163320000Y-86820000D01*
X172950000Y-85750000D02*
X172950000Y-85640000D01*
X163320000Y-86820000D02*
X163320000Y-85640000D01*
%TO.N,/OutputPeripherals/LED_0*%
X167300000Y-84390000D02*
X166350000Y-84390000D01*
X167750000Y-83940000D02*
X167300000Y-84390000D01*
X171750000Y-77500000D02*
X172975000Y-77500000D01*
X167750000Y-82500000D02*
X167750000Y-78000000D01*
X167750000Y-82500000D02*
X167750000Y-83940000D01*
%TO.N,Net-(D8-K)*%
X175000000Y-75000000D02*
X175000000Y-77475000D01*
X175000000Y-77475000D02*
X175025000Y-77500000D01*
X175025000Y-77500000D02*
X175025000Y-77000000D01*
%TO.N,Net-(J2-Pin_2)*%
X110540000Y-96000000D02*
X110540000Y-94460000D01*
X110540000Y-94460000D02*
X112000000Y-93000000D01*
%TO.N,/InputPeripherals/AUX_IN_R*%
X181872750Y-121054500D02*
X183480750Y-122662500D01*
X183480750Y-122662500D02*
X183480750Y-124665660D01*
X155570000Y-126297500D02*
X155800000Y-126297500D01*
X151724485Y-125000000D02*
X151724485Y-121724485D01*
X151724485Y-121724485D02*
X151217500Y-121217500D01*
X183480750Y-124665660D02*
X181848910Y-126297500D01*
X154500000Y-125000000D02*
X154500000Y-125227500D01*
X154500000Y-125227500D02*
X155570000Y-126297500D01*
X169480750Y-122662500D02*
X169480750Y-120019250D01*
X181848910Y-126297500D02*
X155800000Y-126297500D01*
X151217500Y-121217500D02*
X150200000Y-121217500D01*
X169480750Y-120019250D02*
X170750000Y-118750000D01*
X169480750Y-122662500D02*
X171088750Y-121054500D01*
X171088750Y-121054500D02*
X181872750Y-121054500D01*
%TO.N,/InputPeripherals/AUX_IN_L*%
X168526750Y-118973250D02*
X168750000Y-118750000D01*
X152324485Y-123750000D02*
X152324485Y-125248529D01*
X173480750Y-122662500D02*
X170643250Y-125500000D01*
X158385750Y-123757500D02*
X155800000Y-123757500D01*
X159480750Y-123480750D02*
X159480750Y-122662500D01*
X161500000Y-125500000D02*
X159480750Y-123480750D01*
X159480750Y-122662500D02*
X160162500Y-122662500D01*
X170643250Y-125500000D02*
X161500000Y-125500000D01*
X154507500Y-123757500D02*
X154500000Y-123750000D01*
X152324485Y-125248529D02*
X151275514Y-126297500D01*
X155800000Y-123757500D02*
X154507500Y-123757500D01*
X168250000Y-125000000D02*
X168526750Y-124723250D01*
X168526750Y-124723250D02*
X168526750Y-118973250D01*
X151275514Y-126297500D02*
X150200000Y-126297500D01*
X159480750Y-122662500D02*
X158385750Y-123757500D01*
X160162500Y-122662500D02*
X162500000Y-125000000D01*
X162500000Y-125000000D02*
X168250000Y-125000000D01*
D51*
%TO.N,Net-(J6-Pin_1)*%
X128270000Y-93437412D02*
X128270000Y-92750000D01*
X125000000Y-95750000D02*
X126550000Y-94200000D01*
X127507412Y-94200000D02*
X128270000Y-93437412D01*
X126550000Y-94200000D02*
X127507412Y-94200000D01*
X122250000Y-96000000D02*
X122500000Y-95750000D01*
X122500000Y-95750000D02*
X125000000Y-95750000D01*
D48*
%TO.N,/JTAG_TDI*%
X163250000Y-82237850D02*
X163137850Y-82350000D01*
X150961471Y-81750000D02*
X150500000Y-81750000D01*
X148960000Y-84500000D02*
X148850000Y-84390000D01*
X162401471Y-81750000D02*
X151538529Y-81750000D01*
X151498529Y-81790000D02*
X151001471Y-81790000D01*
X151001471Y-81790000D02*
X150961471Y-81750000D01*
X150000000Y-84500000D02*
X148960000Y-84500000D01*
X163001471Y-82350000D02*
X162401471Y-81750000D01*
X151538529Y-81750000D02*
X151498529Y-81790000D01*
X163137850Y-82350000D02*
X163001471Y-82350000D01*
%TO.N,/JTAG_TCK*%
X153250000Y-85550000D02*
X153160000Y-85640000D01*
X153250000Y-84500000D02*
X153250000Y-85550000D01*
%TO.N,/JTAG_TMS*%
X164000000Y-82837850D02*
X162923635Y-82837850D01*
X149978529Y-83120000D02*
X148850000Y-83120000D01*
X150848529Y-82250000D02*
X149978529Y-83120000D01*
X148480000Y-82750000D02*
X148850000Y-83120000D01*
X162923635Y-82837850D02*
X162335785Y-82250000D01*
X162335785Y-82250000D02*
X150848529Y-82250000D01*
%TO.N,/JTAG_TDO*%
X162000000Y-84500000D02*
X162000000Y-85590000D01*
X162000000Y-85590000D02*
X162050000Y-85640000D01*
%TO.N,Net-(J8-Pin_2)*%
X167888529Y-71690000D02*
X166350000Y-71690000D01*
X168500000Y-72301471D02*
X167888529Y-71690000D01*
X168500000Y-75750000D02*
X168500000Y-72301471D01*
X183500000Y-87500000D02*
X183500000Y-76000000D01*
%TO.N,Net-(J8-Pin_3)*%
X189750000Y-81608654D02*
X190125000Y-81983654D01*
X190125000Y-81983654D02*
X190125000Y-83850000D01*
X189750000Y-77000000D02*
X189750000Y-81608654D01*
X167750000Y-72400000D02*
X167190000Y-72960000D01*
X171500000Y-76500000D02*
X171500000Y-72400000D01*
X167190000Y-72960000D02*
X166350000Y-72960000D01*
X190125000Y-83850000D02*
X188975000Y-85000000D01*
%TO.N,Net-(Q1-B)*%
X125500000Y-89000000D02*
X126000000Y-89000000D01*
X126000000Y-89000000D02*
X127000000Y-90000000D01*
X127000000Y-90000000D02*
X127000000Y-92750000D01*
X125250000Y-88750000D02*
X125500000Y-89000000D01*
%TO.N,/InputPeripherals/AMP_CH_0*%
X169000000Y-109858250D02*
X166519250Y-107377500D01*
X169500000Y-113500000D02*
X169000000Y-113000000D01*
X175556750Y-113500000D02*
X169500000Y-113500000D01*
X162592250Y-107742500D02*
X162592250Y-108342250D01*
X166519250Y-104837500D02*
X166519250Y-107377500D01*
X169000000Y-113000000D02*
X169000000Y-109858250D01*
X162592250Y-108342250D02*
X163000000Y-108750000D01*
%TO.N,/OutputPeripherals/SIG_ACTIVE_LED*%
X106850000Y-95450000D02*
X106850000Y-96600000D01*
X150250000Y-86750000D02*
X149500000Y-86750000D01*
X149000000Y-90901472D02*
X148901472Y-91000000D01*
X161000000Y-80500000D02*
X161080000Y-80580000D01*
X119550000Y-92538478D02*
X119550000Y-88300000D01*
X107550000Y-97300000D02*
X114788478Y-97300000D01*
X119550000Y-88300000D02*
X119500000Y-88250000D01*
X106850000Y-96600000D02*
X107550000Y-97300000D01*
X112000000Y-91000000D02*
X111300000Y-91000000D01*
X153498529Y-83900000D02*
X151850000Y-83900000D01*
X149500000Y-86750000D02*
X149000000Y-87250000D01*
X114788478Y-97300000D02*
X119550000Y-92538478D01*
X151140000Y-84610000D02*
X151140000Y-85860000D01*
X149000000Y-87250000D02*
X149000000Y-90901472D01*
X151140000Y-85860000D02*
X150250000Y-86750000D01*
X161000000Y-84250000D02*
X153848529Y-84250000D01*
X161080000Y-80580000D02*
X166350000Y-80580000D01*
X151850000Y-83900000D02*
X151140000Y-84610000D01*
X153848529Y-84250000D02*
X153498529Y-83900000D01*
X111300000Y-91000000D02*
X106850000Y-95450000D01*
%TO.N,/InputPeripherals/PB_0*%
X165300000Y-83500000D02*
X163200000Y-83500000D01*
X184750000Y-73025000D02*
X182250000Y-73025000D01*
X161850000Y-83500000D02*
X154250000Y-83500000D01*
X162848529Y-84001471D02*
X162351471Y-84001471D01*
X185000000Y-82000000D02*
X186150000Y-82000000D01*
X185000000Y-81500000D02*
X184750000Y-81250000D01*
X150914315Y-79000000D02*
X149334315Y-80580000D01*
X154250000Y-79000000D02*
X150914315Y-79000000D01*
X149334315Y-80580000D02*
X148850000Y-80580000D01*
X165300000Y-85140000D02*
X165300000Y-83500000D01*
X162351471Y-84001471D02*
X161850000Y-83500000D01*
X182500000Y-82250000D02*
X182500000Y-81225000D01*
X170240735Y-82299265D02*
X167400000Y-85140000D01*
X163200000Y-83650000D02*
X162848529Y-84001471D01*
X167400000Y-85140000D02*
X165300000Y-85140000D01*
X184750000Y-81250000D02*
X184750000Y-73025000D01*
X185000000Y-82000000D02*
X185000000Y-81500000D01*
X163200000Y-83500000D02*
X163200000Y-83650000D01*
X182500000Y-81225000D02*
X182250000Y-80975000D01*
X172299265Y-82299265D02*
X170240735Y-82299265D01*
%TO.N,/InputPeripherals/PB_1*%
X168500000Y-79250000D02*
X168500000Y-78500000D01*
X182250000Y-85000000D02*
X182250000Y-83250000D01*
X149900000Y-80600000D02*
X150850000Y-79650000D01*
X172547794Y-81699265D02*
X170949265Y-81699265D01*
X168750000Y-79500000D02*
X168500000Y-79250000D01*
X149900000Y-81750000D02*
X149900000Y-80600000D01*
X184783370Y-91191630D02*
X185000000Y-90975000D01*
X182475000Y-91225000D02*
X182250000Y-91000000D01*
X184783370Y-91875000D02*
X184783370Y-91191630D01*
X182250000Y-91250000D02*
X182250000Y-92950000D01*
X173000000Y-83000000D02*
X173000000Y-82151471D01*
X149800000Y-81850000D02*
X149900000Y-81750000D01*
X173000000Y-82151471D02*
X172547794Y-81699265D01*
X170949265Y-81699265D02*
X168750000Y-79500000D01*
X182250000Y-91000000D02*
X182250000Y-91375000D01*
X182475000Y-91600000D02*
X182475000Y-91225000D01*
X148850000Y-81850000D02*
X149800000Y-81850000D01*
X162350000Y-79650000D02*
X150850000Y-79650000D01*
X182250000Y-91000000D02*
X182250000Y-85000000D01*
X164250000Y-77750000D02*
X162350000Y-79650000D01*
%TO.N,Net-(U7-Y)*%
X155025000Y-115125000D02*
X154750000Y-114850000D01*
X155025000Y-115125000D02*
X157231750Y-115125000D01*
X154750000Y-114850000D02*
X154750000Y-114500000D01*
X149300000Y-121800000D02*
X149300000Y-120300000D01*
X149387500Y-121887500D02*
X149300000Y-121800000D01*
X150500000Y-123757500D02*
X151100000Y-123157500D01*
X150200000Y-123757500D02*
X150500000Y-123757500D01*
X154750000Y-114500000D02*
X155500000Y-113750000D01*
X151100000Y-121887500D02*
X149387500Y-121887500D01*
X151100000Y-123157500D02*
X151100000Y-121887500D01*
X157231750Y-115125000D02*
X160019250Y-112337500D01*
X149300000Y-120300000D02*
X149350000Y-120250000D01*
%TO.N,Net-(U4-NEGB)*%
X160019250Y-106019250D02*
X159202500Y-105202500D01*
X159202500Y-105202500D02*
X157446250Y-105202500D01*
X157446250Y-105202500D02*
X157846250Y-105202500D01*
X155950596Y-107072500D02*
X154019250Y-109003846D01*
X154019250Y-109003846D02*
X154019250Y-109917500D01*
X158446250Y-105802500D02*
X158446250Y-107072500D01*
X160019250Y-110337500D02*
X160019250Y-106019250D01*
X158446250Y-107072500D02*
X155950596Y-107072500D01*
X157846250Y-105202500D02*
X158446250Y-105802500D01*
%TO.N,Net-(U3-EN)*%
X142725000Y-69025000D02*
X138250000Y-69025000D01*
X141000000Y-76000000D02*
X139225000Y-76000000D01*
X143000000Y-76000000D02*
X143000000Y-74000000D01*
X142750000Y-69000000D02*
X142725000Y-69025000D01*
X139225000Y-76000000D02*
X138250000Y-76975000D01*
X143000000Y-76000000D02*
X141000000Y-76000000D01*
X143250000Y-75490000D02*
X148320000Y-70420000D01*
X148320000Y-70420000D02*
X148850000Y-70420000D01*
X143000000Y-76000000D02*
X143250000Y-75750000D01*
X143250000Y-75750000D02*
X143250000Y-75490000D01*
%TO.N,/OutputPeripherals/SIG_PASSIVE_LED*%
X151250000Y-82750000D02*
X150600000Y-83400000D01*
X150600000Y-84748529D02*
X150500000Y-84848529D01*
X162600000Y-83401471D02*
X162600000Y-83079901D01*
X150000000Y-90750000D02*
X149799265Y-90549265D01*
X166137850Y-81637850D02*
X166350000Y-81850000D01*
X162270099Y-82750000D02*
X151250000Y-82750000D01*
X150600000Y-83400000D02*
X150600000Y-84748529D01*
X150500000Y-84848529D02*
X150500000Y-85500000D01*
X162621471Y-81191788D02*
X163067533Y-81637850D01*
X162600000Y-83079901D02*
X162270099Y-82750000D01*
X150000000Y-91000000D02*
X150000000Y-90750000D01*
X163067533Y-81637850D02*
X166137850Y-81637850D01*
X149799265Y-90549265D02*
X149799265Y-87350000D01*
%TO.N,Net-(U7-X)*%
X162519250Y-112337500D02*
X163837500Y-112337500D01*
X162519250Y-112337500D02*
X164521814Y-112337500D01*
X158526750Y-123050814D02*
X158490064Y-123087500D01*
X164445500Y-121054500D02*
X159085590Y-121054500D01*
X166100000Y-113915686D02*
X166100000Y-119400000D01*
X164521814Y-112337500D02*
X166100000Y-113915686D01*
X154313971Y-123087500D02*
X153900000Y-123501471D01*
X153900000Y-123501471D02*
X153900000Y-123998529D01*
X154301471Y-124400000D02*
X155172500Y-124400000D01*
X158526750Y-121613340D02*
X158526750Y-123050814D01*
X155172500Y-124400000D02*
X155800000Y-125027500D01*
X158490064Y-123087500D02*
X154313971Y-123087500D01*
X159085590Y-121054500D02*
X158526750Y-121613340D01*
X153900000Y-123998529D02*
X154301471Y-124400000D01*
X166100000Y-119400000D02*
X164445500Y-121054500D01*
X163837500Y-112337500D02*
X164500000Y-113000000D01*
%TO.N,Net-(U4-NEGA)*%
X161777500Y-106472500D02*
X162592250Y-106472500D01*
X161592250Y-109410500D02*
X161592250Y-106657750D01*
X163812500Y-110337500D02*
X163900000Y-110250000D01*
X162519250Y-110337500D02*
X161592250Y-109410500D01*
X161592250Y-106657750D02*
X161777500Y-106472500D01*
X162519250Y-110337500D02*
X163812500Y-110337500D01*
%TO.N,/InputPeripherals/AMP_CH_1*%
X152869250Y-110380750D02*
X152869250Y-108527500D01*
X152869250Y-108527500D02*
X154019250Y-107377500D01*
X140519250Y-114000000D02*
X141256750Y-114737500D01*
X154019250Y-107377500D02*
X154924250Y-106472500D01*
X148512500Y-114737500D02*
X152869250Y-110380750D01*
X154019250Y-104837500D02*
X154019250Y-107377500D01*
X140446250Y-116250000D02*
X140446250Y-114073000D01*
X154924250Y-106472500D02*
X157446250Y-106472500D01*
X141256750Y-114737500D02*
X148512500Y-114737500D01*
X140446250Y-114073000D02*
X140519250Y-114000000D01*
%TO.N,/InputPeripherals/MUX_A*%
X166500000Y-113500000D02*
X166500000Y-123750000D01*
X164500000Y-111500000D02*
X166500000Y-113500000D01*
X150901471Y-88750000D02*
X159434314Y-88750000D01*
X159750000Y-69250000D02*
X165720000Y-69250000D01*
X150750000Y-88598529D02*
X150901471Y-88750000D01*
X166500000Y-123750000D02*
X166750000Y-124000000D01*
X162100000Y-91415686D02*
X162100000Y-94165686D01*
X165024265Y-101524265D02*
X165024265Y-102074264D01*
X159434314Y-88750000D02*
X162100000Y-91415686D01*
X150750000Y-87350000D02*
X150750000Y-88598529D01*
X151440000Y-81000000D02*
X151250000Y-81190000D01*
X162100000Y-94165686D02*
X160500000Y-95765686D01*
X165024265Y-102074264D02*
X164500000Y-102598529D01*
X165720000Y-69250000D02*
X165820000Y-69150000D01*
X164500000Y-102598529D02*
X164500000Y-111500000D01*
X155800000Y-128837500D02*
X165662500Y-128837500D01*
X165662500Y-128837500D02*
X167250000Y-127250000D01*
X160500000Y-95765686D02*
X160500000Y-97000000D01*
X160500000Y-97000000D02*
X165024265Y-101524265D01*
X159750000Y-81000000D02*
X151440000Y-81000000D01*
X165820000Y-69150000D02*
X166350000Y-69150000D01*
%TO.N,/InputPeripherals/ADC_RDY*%
X166600000Y-87005685D02*
X164500000Y-84905685D01*
X164500000Y-84905685D02*
X164500000Y-84500000D01*
X163000000Y-91250000D02*
X164000000Y-90250000D01*
X157500000Y-99150000D02*
X157500000Y-100075000D01*
X163000000Y-94500000D02*
X163000000Y-91250000D01*
X161500000Y-96868628D02*
X161500000Y-96000000D01*
X166600000Y-90150000D02*
X166600000Y-87005685D01*
X162100000Y-76750000D02*
X166330000Y-76750000D01*
X165217157Y-100585785D02*
X161500000Y-96868628D01*
X157500000Y-100075000D02*
X158375735Y-100950735D01*
X166330000Y-76750000D02*
X166350000Y-76770000D01*
X165500000Y-100585785D02*
X165217157Y-100585785D01*
X165828190Y-100913975D02*
X165500000Y-100585785D01*
X166500000Y-90250000D02*
X166600000Y-90150000D01*
X158375735Y-100950735D02*
X163549265Y-100950735D01*
X164000000Y-90250000D02*
X166500000Y-90250000D01*
X161500000Y-96000000D02*
X163000000Y-94500000D01*
%TO.N,/InputPeripherals/MUX_B*%
X166900000Y-112900000D02*
X166900000Y-123150000D01*
X165424265Y-102239950D02*
X164900000Y-102764215D01*
X164900000Y-110900000D02*
X166900000Y-112900000D01*
X164900000Y-102764215D02*
X164900000Y-110900000D01*
X162500000Y-91250000D02*
X162500000Y-94331372D01*
X162500000Y-94331372D02*
X161000000Y-95831372D01*
X146000000Y-79750000D02*
X146440000Y-79310000D01*
X168050003Y-127298526D02*
X168050003Y-127250000D01*
X164236029Y-131112500D02*
X168050003Y-127298526D01*
X165424265Y-101358579D02*
X165424265Y-102239950D01*
X156805000Y-131112500D02*
X164236029Y-131112500D01*
X155800000Y-130107500D02*
X156805000Y-131112500D01*
X161000000Y-95831372D02*
X161000000Y-96934314D01*
X161000000Y-96934314D02*
X165424265Y-101358579D01*
X159000000Y-87750000D02*
X162500000Y-91250000D01*
X166900000Y-123150000D02*
X167750000Y-124000000D01*
X146440000Y-79310000D02*
X148850000Y-79310000D01*
X151500000Y-87750000D02*
X159000000Y-87750000D01*
X146000000Y-87000000D02*
X146000000Y-79750000D01*
%TO.N,/I2C_SCL_EXT*%
X180101470Y-71950000D02*
X176559314Y-71950000D01*
X159200000Y-96500000D02*
X157751471Y-96500000D01*
X170800000Y-70000000D02*
X169500000Y-70000000D01*
X180250000Y-72098530D02*
X180101470Y-71950000D01*
X157000000Y-95748529D02*
X157000000Y-94850000D01*
X152250000Y-70750000D02*
X153000000Y-70750000D01*
X180250000Y-72098530D02*
X180250000Y-93000000D01*
X167570000Y-70420000D02*
X166350000Y-70420000D01*
X168750000Y-71600000D02*
X167570000Y-70420000D01*
X153330000Y-70420000D02*
X166350000Y-70420000D01*
X169500000Y-70000000D02*
X169080000Y-70420000D01*
X161500000Y-93000000D02*
X161500000Y-94200000D01*
X176559314Y-71950000D02*
X176209314Y-71600000D01*
X169080000Y-70420000D02*
X166350000Y-70420000D01*
X161500000Y-94200000D02*
X159200000Y-96500000D01*
X157751471Y-96500000D02*
X157000000Y-95748529D01*
X153000000Y-70750000D02*
X153330000Y-70420000D01*
%TO.N,/I2C_SDA_EXT*%
X174000000Y-75980000D02*
X172250000Y-74230000D01*
X151600000Y-73400000D02*
X163650000Y-73400000D01*
X166350000Y-74230000D02*
X167730000Y-74230000D01*
X151500000Y-73500000D02*
X151600000Y-73400000D01*
X160750000Y-92850000D02*
X160750000Y-94250000D01*
X159250000Y-95750000D02*
X157625000Y-95750000D01*
X157500000Y-95625000D02*
X157500000Y-94850000D01*
X163650000Y-73400000D02*
X164480000Y-74230000D01*
X171250000Y-92100000D02*
X171250000Y-86000000D01*
X157625000Y-95750000D02*
X157500000Y-95625000D01*
X161500000Y-92100000D02*
X160750000Y-92850000D01*
X164480000Y-74230000D02*
X166350000Y-74230000D01*
X174000000Y-83250000D02*
X174000000Y-75980000D01*
X172250000Y-71500000D02*
X172250000Y-74230000D01*
X167730000Y-74230000D02*
X167750000Y-74250000D01*
X160750000Y-94250000D02*
X159250000Y-95750000D01*
X171250000Y-86000000D02*
X174000000Y-83250000D01*
X173750000Y-70000000D02*
X172250000Y-71500000D01*
%TD*%
M02*
