%TF.GenerationSoftware,KiCad,Pcbnew,8.0.4*%
%TF.CreationDate,2024-09-11T20:39:54+02:00*%
%TF.ProjectId,BaseBoard,42617365-426f-4617-9264-2e6b69636164,rev?*%
%TF.SameCoordinates,Original*%
%TF.FileFunction,Legend,Bot*%
%TF.FilePolarity,Positive*%
%FSLAX46Y46*%
G04 Gerber Fmt 4.6, Leading zero omitted, Abs format (unit mm)*
G04 Created by KiCad (PCBNEW 8.0.4) date 2024-09-11 20:39:54*
%MOMM*%
%LPD*%
G01*
G04 APERTURE LIST*
G04 Aperture macros list*
%AMRoundRect*
0 Rectangle with rounded corners*
0 $1 Rounding radius*
0 $2 $3 $4 $5 $6 $7 $8 $9 X,Y pos of 4 corners*
0 Add a 4 corners polygon primitive as box body*
4,1,4,$2,$3,$4,$5,$6,$7,$8,$9,$2,$3,0*
0 Add four circle primitives for the rounded corners*
1,1,$1+$1,$2,$3*
1,1,$1+$1,$4,$5*
1,1,$1+$1,$6,$7*
1,1,$1+$1,$8,$9*
0 Add four rect primitives between the rounded corners*
20,1,$1+$1,$2,$3,$4,$5,0*
20,1,$1+$1,$4,$5,$6,$7,0*
20,1,$1+$1,$6,$7,$8,$9,0*
20,1,$1+$1,$8,$9,$2,$3,0*%
G04 Aperture macros list end*
%ADD10C,0.200000*%
%ADD11C,0.120000*%
%ADD12C,0.127000*%
%ADD13R,2.000000X2.000000*%
%ADD14C,2.000000*%
%ADD15R,1.700000X1.700000*%
%ADD16O,1.700000X1.700000*%
%ADD17R,1.200000X1.200000*%
%ADD18C,1.200000*%
%ADD19O,2.820000X1.512000*%
%ADD20O,1.512000X2.820000*%
%ADD21R,1.600000X1.600000*%
%ADD22C,1.600000*%
%ADD23R,2.000000X1.905000*%
%ADD24O,2.000000X1.905000*%
%ADD25C,1.800000*%
%ADD26RoundRect,0.250000X-0.600000X-0.600000X0.600000X-0.600000X0.600000X0.600000X-0.600000X0.600000X0*%
%ADD27C,1.700000*%
%ADD28R,2.200000X2.200000*%
%ADD29O,2.200000X2.200000*%
%ADD30R,1.050000X1.500000*%
%ADD31O,1.050000X1.500000*%
%ADD32R,1.000000X1.000000*%
%ADD33RoundRect,0.250000X0.350000X0.450000X-0.350000X0.450000X-0.350000X-0.450000X0.350000X-0.450000X0*%
%ADD34RoundRect,0.099250X-0.987750X-0.297750X0.987750X-0.297750X0.987750X0.297750X-0.987750X0.297750X0*%
G04 APERTURE END LIST*
D10*
X167523810Y-113647331D02*
X167523810Y-112647331D01*
X167523810Y-112647331D02*
X167285715Y-112647331D01*
X167285715Y-112647331D02*
X167142858Y-112694950D01*
X167142858Y-112694950D02*
X167047620Y-112790188D01*
X167047620Y-112790188D02*
X167000001Y-112885426D01*
X167000001Y-112885426D02*
X166952382Y-113075902D01*
X166952382Y-113075902D02*
X166952382Y-113218759D01*
X166952382Y-113218759D02*
X167000001Y-113409235D01*
X167000001Y-113409235D02*
X167047620Y-113504473D01*
X167047620Y-113504473D02*
X167142858Y-113599712D01*
X167142858Y-113599712D02*
X167285715Y-113647331D01*
X167285715Y-113647331D02*
X167523810Y-113647331D01*
X166523810Y-113647331D02*
X166523810Y-112980664D01*
X166523810Y-112647331D02*
X166571429Y-112694950D01*
X166571429Y-112694950D02*
X166523810Y-112742569D01*
X166523810Y-112742569D02*
X166476191Y-112694950D01*
X166476191Y-112694950D02*
X166523810Y-112647331D01*
X166523810Y-112647331D02*
X166523810Y-112742569D01*
X166095239Y-113599712D02*
X166000001Y-113647331D01*
X166000001Y-113647331D02*
X165809525Y-113647331D01*
X165809525Y-113647331D02*
X165714287Y-113599712D01*
X165714287Y-113599712D02*
X165666668Y-113504473D01*
X165666668Y-113504473D02*
X165666668Y-113456854D01*
X165666668Y-113456854D02*
X165714287Y-113361616D01*
X165714287Y-113361616D02*
X165809525Y-113313997D01*
X165809525Y-113313997D02*
X165952382Y-113313997D01*
X165952382Y-113313997D02*
X166047620Y-113266378D01*
X166047620Y-113266378D02*
X166095239Y-113171140D01*
X166095239Y-113171140D02*
X166095239Y-113123521D01*
X166095239Y-113123521D02*
X166047620Y-113028283D01*
X166047620Y-113028283D02*
X165952382Y-112980664D01*
X165952382Y-112980664D02*
X165809525Y-112980664D01*
X165809525Y-112980664D02*
X165714287Y-113028283D01*
X165380953Y-112980664D02*
X165000001Y-112980664D01*
X165238096Y-112647331D02*
X165238096Y-113504473D01*
X165238096Y-113504473D02*
X165190477Y-113599712D01*
X165190477Y-113599712D02*
X165095239Y-113647331D01*
X165095239Y-113647331D02*
X165000001Y-113647331D01*
X164666667Y-113647331D02*
X164666667Y-112980664D01*
X164666667Y-113171140D02*
X164619048Y-113075902D01*
X164619048Y-113075902D02*
X164571429Y-113028283D01*
X164571429Y-113028283D02*
X164476191Y-112980664D01*
X164476191Y-112980664D02*
X164380953Y-112980664D01*
X164047619Y-113647331D02*
X164047619Y-112980664D01*
X164047619Y-112647331D02*
X164095238Y-112694950D01*
X164095238Y-112694950D02*
X164047619Y-112742569D01*
X164047619Y-112742569D02*
X164000000Y-112694950D01*
X164000000Y-112694950D02*
X164047619Y-112647331D01*
X164047619Y-112647331D02*
X164047619Y-112742569D01*
X163571429Y-113647331D02*
X163571429Y-112647331D01*
X163571429Y-113028283D02*
X163476191Y-112980664D01*
X163476191Y-112980664D02*
X163285715Y-112980664D01*
X163285715Y-112980664D02*
X163190477Y-113028283D01*
X163190477Y-113028283D02*
X163142858Y-113075902D01*
X163142858Y-113075902D02*
X163095239Y-113171140D01*
X163095239Y-113171140D02*
X163095239Y-113456854D01*
X163095239Y-113456854D02*
X163142858Y-113552092D01*
X163142858Y-113552092D02*
X163190477Y-113599712D01*
X163190477Y-113599712D02*
X163285715Y-113647331D01*
X163285715Y-113647331D02*
X163476191Y-113647331D01*
X163476191Y-113647331D02*
X163571429Y-113599712D01*
X162238096Y-112980664D02*
X162238096Y-113647331D01*
X162666667Y-112980664D02*
X162666667Y-113504473D01*
X162666667Y-113504473D02*
X162619048Y-113599712D01*
X162619048Y-113599712D02*
X162523810Y-113647331D01*
X162523810Y-113647331D02*
X162380953Y-113647331D01*
X162380953Y-113647331D02*
X162285715Y-113599712D01*
X162285715Y-113599712D02*
X162238096Y-113552092D01*
X161904762Y-112980664D02*
X161523810Y-112980664D01*
X161761905Y-112647331D02*
X161761905Y-113504473D01*
X161761905Y-113504473D02*
X161714286Y-113599712D01*
X161714286Y-113599712D02*
X161619048Y-113647331D01*
X161619048Y-113647331D02*
X161523810Y-113647331D01*
X160809524Y-113599712D02*
X160904762Y-113647331D01*
X160904762Y-113647331D02*
X161095238Y-113647331D01*
X161095238Y-113647331D02*
X161190476Y-113599712D01*
X161190476Y-113599712D02*
X161238095Y-113504473D01*
X161238095Y-113504473D02*
X161238095Y-113123521D01*
X161238095Y-113123521D02*
X161190476Y-113028283D01*
X161190476Y-113028283D02*
X161095238Y-112980664D01*
X161095238Y-112980664D02*
X160904762Y-112980664D01*
X160904762Y-112980664D02*
X160809524Y-113028283D01*
X160809524Y-113028283D02*
X160761905Y-113123521D01*
X160761905Y-113123521D02*
X160761905Y-113218759D01*
X160761905Y-113218759D02*
X161238095Y-113313997D01*
X159904762Y-113647331D02*
X159904762Y-112647331D01*
X159904762Y-113599712D02*
X160000000Y-113647331D01*
X160000000Y-113647331D02*
X160190476Y-113647331D01*
X160190476Y-113647331D02*
X160285714Y-113599712D01*
X160285714Y-113599712D02*
X160333333Y-113552092D01*
X160333333Y-113552092D02*
X160380952Y-113456854D01*
X160380952Y-113456854D02*
X160380952Y-113171140D01*
X160380952Y-113171140D02*
X160333333Y-113075902D01*
X160333333Y-113075902D02*
X160285714Y-113028283D01*
X160285714Y-113028283D02*
X160190476Y-112980664D01*
X160190476Y-112980664D02*
X160000000Y-112980664D01*
X160000000Y-112980664D02*
X159904762Y-113028283D01*
X158523809Y-113647331D02*
X158619047Y-113599712D01*
X158619047Y-113599712D02*
X158666666Y-113504473D01*
X158666666Y-113504473D02*
X158666666Y-112647331D01*
X158142856Y-113647331D02*
X158142856Y-112980664D01*
X158142856Y-112647331D02*
X158190475Y-112694950D01*
X158190475Y-112694950D02*
X158142856Y-112742569D01*
X158142856Y-112742569D02*
X158095237Y-112694950D01*
X158095237Y-112694950D02*
X158142856Y-112647331D01*
X158142856Y-112647331D02*
X158142856Y-112742569D01*
X157238095Y-112980664D02*
X157238095Y-113790188D01*
X157238095Y-113790188D02*
X157285714Y-113885426D01*
X157285714Y-113885426D02*
X157333333Y-113933045D01*
X157333333Y-113933045D02*
X157428571Y-113980664D01*
X157428571Y-113980664D02*
X157571428Y-113980664D01*
X157571428Y-113980664D02*
X157666666Y-113933045D01*
X157238095Y-113599712D02*
X157333333Y-113647331D01*
X157333333Y-113647331D02*
X157523809Y-113647331D01*
X157523809Y-113647331D02*
X157619047Y-113599712D01*
X157619047Y-113599712D02*
X157666666Y-113552092D01*
X157666666Y-113552092D02*
X157714285Y-113456854D01*
X157714285Y-113456854D02*
X157714285Y-113171140D01*
X157714285Y-113171140D02*
X157666666Y-113075902D01*
X157666666Y-113075902D02*
X157619047Y-113028283D01*
X157619047Y-113028283D02*
X157523809Y-112980664D01*
X157523809Y-112980664D02*
X157333333Y-112980664D01*
X157333333Y-112980664D02*
X157238095Y-113028283D01*
X156904761Y-112980664D02*
X156523809Y-112980664D01*
X156761904Y-112647331D02*
X156761904Y-113504473D01*
X156761904Y-113504473D02*
X156714285Y-113599712D01*
X156714285Y-113599712D02*
X156619047Y-113647331D01*
X156619047Y-113647331D02*
X156523809Y-113647331D01*
X156190475Y-113647331D02*
X156190475Y-112980664D01*
X156190475Y-112647331D02*
X156238094Y-112694950D01*
X156238094Y-112694950D02*
X156190475Y-112742569D01*
X156190475Y-112742569D02*
X156142856Y-112694950D01*
X156142856Y-112694950D02*
X156190475Y-112647331D01*
X156190475Y-112647331D02*
X156190475Y-112742569D01*
X155714285Y-112980664D02*
X155714285Y-113647331D01*
X155714285Y-113075902D02*
X155666666Y-113028283D01*
X155666666Y-113028283D02*
X155571428Y-112980664D01*
X155571428Y-112980664D02*
X155428571Y-112980664D01*
X155428571Y-112980664D02*
X155333333Y-113028283D01*
X155333333Y-113028283D02*
X155285714Y-113123521D01*
X155285714Y-113123521D02*
X155285714Y-113647331D01*
X154380952Y-112980664D02*
X154380952Y-113790188D01*
X154380952Y-113790188D02*
X154428571Y-113885426D01*
X154428571Y-113885426D02*
X154476190Y-113933045D01*
X154476190Y-113933045D02*
X154571428Y-113980664D01*
X154571428Y-113980664D02*
X154714285Y-113980664D01*
X154714285Y-113980664D02*
X154809523Y-113933045D01*
X154380952Y-113599712D02*
X154476190Y-113647331D01*
X154476190Y-113647331D02*
X154666666Y-113647331D01*
X154666666Y-113647331D02*
X154761904Y-113599712D01*
X154761904Y-113599712D02*
X154809523Y-113552092D01*
X154809523Y-113552092D02*
X154857142Y-113456854D01*
X154857142Y-113456854D02*
X154857142Y-113171140D01*
X154857142Y-113171140D02*
X154809523Y-113075902D01*
X154809523Y-113075902D02*
X154761904Y-113028283D01*
X154761904Y-113028283D02*
X154666666Y-112980664D01*
X154666666Y-112980664D02*
X154476190Y-112980664D01*
X154476190Y-112980664D02*
X154380952Y-113028283D01*
X153190475Y-113599712D02*
X153095237Y-113647331D01*
X153095237Y-113647331D02*
X152904761Y-113647331D01*
X152904761Y-113647331D02*
X152809523Y-113599712D01*
X152809523Y-113599712D02*
X152761904Y-113504473D01*
X152761904Y-113504473D02*
X152761904Y-113456854D01*
X152761904Y-113456854D02*
X152809523Y-113361616D01*
X152809523Y-113361616D02*
X152904761Y-113313997D01*
X152904761Y-113313997D02*
X153047618Y-113313997D01*
X153047618Y-113313997D02*
X153142856Y-113266378D01*
X153142856Y-113266378D02*
X153190475Y-113171140D01*
X153190475Y-113171140D02*
X153190475Y-113123521D01*
X153190475Y-113123521D02*
X153142856Y-113028283D01*
X153142856Y-113028283D02*
X153047618Y-112980664D01*
X153047618Y-112980664D02*
X152904761Y-112980664D01*
X152904761Y-112980664D02*
X152809523Y-113028283D01*
X152428570Y-112980664D02*
X152190475Y-113647331D01*
X151952380Y-112980664D02*
X152190475Y-113647331D01*
X152190475Y-113647331D02*
X152285713Y-113885426D01*
X152285713Y-113885426D02*
X152333332Y-113933045D01*
X152333332Y-113933045D02*
X152428570Y-113980664D01*
X151619046Y-113599712D02*
X151523808Y-113647331D01*
X151523808Y-113647331D02*
X151333332Y-113647331D01*
X151333332Y-113647331D02*
X151238094Y-113599712D01*
X151238094Y-113599712D02*
X151190475Y-113504473D01*
X151190475Y-113504473D02*
X151190475Y-113456854D01*
X151190475Y-113456854D02*
X151238094Y-113361616D01*
X151238094Y-113361616D02*
X151333332Y-113313997D01*
X151333332Y-113313997D02*
X151476189Y-113313997D01*
X151476189Y-113313997D02*
X151571427Y-113266378D01*
X151571427Y-113266378D02*
X151619046Y-113171140D01*
X151619046Y-113171140D02*
X151619046Y-113123521D01*
X151619046Y-113123521D02*
X151571427Y-113028283D01*
X151571427Y-113028283D02*
X151476189Y-112980664D01*
X151476189Y-112980664D02*
X151333332Y-112980664D01*
X151333332Y-112980664D02*
X151238094Y-113028283D01*
X150904760Y-112980664D02*
X150523808Y-112980664D01*
X150761903Y-112647331D02*
X150761903Y-113504473D01*
X150761903Y-113504473D02*
X150714284Y-113599712D01*
X150714284Y-113599712D02*
X150619046Y-113647331D01*
X150619046Y-113647331D02*
X150523808Y-113647331D01*
X149809522Y-113599712D02*
X149904760Y-113647331D01*
X149904760Y-113647331D02*
X150095236Y-113647331D01*
X150095236Y-113647331D02*
X150190474Y-113599712D01*
X150190474Y-113599712D02*
X150238093Y-113504473D01*
X150238093Y-113504473D02*
X150238093Y-113123521D01*
X150238093Y-113123521D02*
X150190474Y-113028283D01*
X150190474Y-113028283D02*
X150095236Y-112980664D01*
X150095236Y-112980664D02*
X149904760Y-112980664D01*
X149904760Y-112980664D02*
X149809522Y-113028283D01*
X149809522Y-113028283D02*
X149761903Y-113123521D01*
X149761903Y-113123521D02*
X149761903Y-113218759D01*
X149761903Y-113218759D02*
X150238093Y-113313997D01*
X149333331Y-113647331D02*
X149333331Y-112980664D01*
X149333331Y-113075902D02*
X149285712Y-113028283D01*
X149285712Y-113028283D02*
X149190474Y-112980664D01*
X149190474Y-112980664D02*
X149047617Y-112980664D01*
X149047617Y-112980664D02*
X148952379Y-113028283D01*
X148952379Y-113028283D02*
X148904760Y-113123521D01*
X148904760Y-113123521D02*
X148904760Y-113647331D01*
X148904760Y-113123521D02*
X148857141Y-113028283D01*
X148857141Y-113028283D02*
X148761903Y-112980664D01*
X148761903Y-112980664D02*
X148619046Y-112980664D01*
X148619046Y-112980664D02*
X148523807Y-113028283D01*
X148523807Y-113028283D02*
X148476188Y-113123521D01*
X148476188Y-113123521D02*
X148476188Y-113647331D01*
X159357143Y-115257275D02*
X159690476Y-114781084D01*
X159928571Y-115257275D02*
X159928571Y-114257275D01*
X159928571Y-114257275D02*
X159547619Y-114257275D01*
X159547619Y-114257275D02*
X159452381Y-114304894D01*
X159452381Y-114304894D02*
X159404762Y-114352513D01*
X159404762Y-114352513D02*
X159357143Y-114447751D01*
X159357143Y-114447751D02*
X159357143Y-114590608D01*
X159357143Y-114590608D02*
X159404762Y-114685846D01*
X159404762Y-114685846D02*
X159452381Y-114733465D01*
X159452381Y-114733465D02*
X159547619Y-114781084D01*
X159547619Y-114781084D02*
X159928571Y-114781084D01*
X158547619Y-115209656D02*
X158642857Y-115257275D01*
X158642857Y-115257275D02*
X158833333Y-115257275D01*
X158833333Y-115257275D02*
X158928571Y-115209656D01*
X158928571Y-115209656D02*
X158976190Y-115114417D01*
X158976190Y-115114417D02*
X158976190Y-114733465D01*
X158976190Y-114733465D02*
X158928571Y-114638227D01*
X158928571Y-114638227D02*
X158833333Y-114590608D01*
X158833333Y-114590608D02*
X158642857Y-114590608D01*
X158642857Y-114590608D02*
X158547619Y-114638227D01*
X158547619Y-114638227D02*
X158500000Y-114733465D01*
X158500000Y-114733465D02*
X158500000Y-114828703D01*
X158500000Y-114828703D02*
X158976190Y-114923941D01*
X158166666Y-114590608D02*
X157928571Y-115257275D01*
X157928571Y-115257275D02*
X157690476Y-114590608D01*
X156595237Y-114352513D02*
X156547618Y-114304894D01*
X156547618Y-114304894D02*
X156452380Y-114257275D01*
X156452380Y-114257275D02*
X156214285Y-114257275D01*
X156214285Y-114257275D02*
X156119047Y-114304894D01*
X156119047Y-114304894D02*
X156071428Y-114352513D01*
X156071428Y-114352513D02*
X156023809Y-114447751D01*
X156023809Y-114447751D02*
X156023809Y-114542989D01*
X156023809Y-114542989D02*
X156071428Y-114685846D01*
X156071428Y-114685846D02*
X156642856Y-115257275D01*
X156642856Y-115257275D02*
X156023809Y-115257275D01*
X167857142Y-116867219D02*
X167857142Y-115867219D01*
X167857142Y-115867219D02*
X167523809Y-116581504D01*
X167523809Y-116581504D02*
X167190476Y-115867219D01*
X167190476Y-115867219D02*
X167190476Y-116867219D01*
X166285714Y-116867219D02*
X166285714Y-116343409D01*
X166285714Y-116343409D02*
X166333333Y-116248171D01*
X166333333Y-116248171D02*
X166428571Y-116200552D01*
X166428571Y-116200552D02*
X166619047Y-116200552D01*
X166619047Y-116200552D02*
X166714285Y-116248171D01*
X166285714Y-116819600D02*
X166380952Y-116867219D01*
X166380952Y-116867219D02*
X166619047Y-116867219D01*
X166619047Y-116867219D02*
X166714285Y-116819600D01*
X166714285Y-116819600D02*
X166761904Y-116724361D01*
X166761904Y-116724361D02*
X166761904Y-116629123D01*
X166761904Y-116629123D02*
X166714285Y-116533885D01*
X166714285Y-116533885D02*
X166619047Y-116486266D01*
X166619047Y-116486266D02*
X166380952Y-116486266D01*
X166380952Y-116486266D02*
X166285714Y-116438647D01*
X165380952Y-116867219D02*
X165380952Y-115867219D01*
X165380952Y-116819600D02*
X165476190Y-116867219D01*
X165476190Y-116867219D02*
X165666666Y-116867219D01*
X165666666Y-116867219D02*
X165761904Y-116819600D01*
X165761904Y-116819600D02*
X165809523Y-116771980D01*
X165809523Y-116771980D02*
X165857142Y-116676742D01*
X165857142Y-116676742D02*
X165857142Y-116391028D01*
X165857142Y-116391028D02*
X165809523Y-116295790D01*
X165809523Y-116295790D02*
X165761904Y-116248171D01*
X165761904Y-116248171D02*
X165666666Y-116200552D01*
X165666666Y-116200552D02*
X165476190Y-116200552D01*
X165476190Y-116200552D02*
X165380952Y-116248171D01*
X164523809Y-116819600D02*
X164619047Y-116867219D01*
X164619047Y-116867219D02*
X164809523Y-116867219D01*
X164809523Y-116867219D02*
X164904761Y-116819600D01*
X164904761Y-116819600D02*
X164952380Y-116724361D01*
X164952380Y-116724361D02*
X164952380Y-116343409D01*
X164952380Y-116343409D02*
X164904761Y-116248171D01*
X164904761Y-116248171D02*
X164809523Y-116200552D01*
X164809523Y-116200552D02*
X164619047Y-116200552D01*
X164619047Y-116200552D02*
X164523809Y-116248171D01*
X164523809Y-116248171D02*
X164476190Y-116343409D01*
X164476190Y-116343409D02*
X164476190Y-116438647D01*
X164476190Y-116438647D02*
X164952380Y-116533885D01*
X163285713Y-116867219D02*
X163285713Y-115867219D01*
X163285713Y-116248171D02*
X163190475Y-116200552D01*
X163190475Y-116200552D02*
X162999999Y-116200552D01*
X162999999Y-116200552D02*
X162904761Y-116248171D01*
X162904761Y-116248171D02*
X162857142Y-116295790D01*
X162857142Y-116295790D02*
X162809523Y-116391028D01*
X162809523Y-116391028D02*
X162809523Y-116676742D01*
X162809523Y-116676742D02*
X162857142Y-116771980D01*
X162857142Y-116771980D02*
X162904761Y-116819600D01*
X162904761Y-116819600D02*
X162999999Y-116867219D01*
X162999999Y-116867219D02*
X163190475Y-116867219D01*
X163190475Y-116867219D02*
X163285713Y-116819600D01*
X162476189Y-116200552D02*
X162238094Y-116867219D01*
X161999999Y-116200552D02*
X162238094Y-116867219D01*
X162238094Y-116867219D02*
X162333332Y-117105314D01*
X162333332Y-117105314D02*
X162380951Y-117152933D01*
X162380951Y-117152933D02*
X162476189Y-117200552D01*
X160285713Y-116771980D02*
X160333332Y-116819600D01*
X160333332Y-116819600D02*
X160476189Y-116867219D01*
X160476189Y-116867219D02*
X160571427Y-116867219D01*
X160571427Y-116867219D02*
X160714284Y-116819600D01*
X160714284Y-116819600D02*
X160809522Y-116724361D01*
X160809522Y-116724361D02*
X160857141Y-116629123D01*
X160857141Y-116629123D02*
X160904760Y-116438647D01*
X160904760Y-116438647D02*
X160904760Y-116295790D01*
X160904760Y-116295790D02*
X160857141Y-116105314D01*
X160857141Y-116105314D02*
X160809522Y-116010076D01*
X160809522Y-116010076D02*
X160714284Y-115914838D01*
X160714284Y-115914838D02*
X160571427Y-115867219D01*
X160571427Y-115867219D02*
X160476189Y-115867219D01*
X160476189Y-115867219D02*
X160333332Y-115914838D01*
X160333332Y-115914838D02*
X160285713Y-115962457D01*
X159857141Y-116867219D02*
X159857141Y-115867219D01*
X159428570Y-116867219D02*
X159428570Y-116343409D01*
X159428570Y-116343409D02*
X159476189Y-116248171D01*
X159476189Y-116248171D02*
X159571427Y-116200552D01*
X159571427Y-116200552D02*
X159714284Y-116200552D01*
X159714284Y-116200552D02*
X159809522Y-116248171D01*
X159809522Y-116248171D02*
X159857141Y-116295790D01*
X158952379Y-116867219D02*
X158952379Y-116200552D01*
X158952379Y-116391028D02*
X158904760Y-116295790D01*
X158904760Y-116295790D02*
X158857141Y-116248171D01*
X158857141Y-116248171D02*
X158761903Y-116200552D01*
X158761903Y-116200552D02*
X158666665Y-116200552D01*
X158333331Y-116867219D02*
X158333331Y-116200552D01*
X158333331Y-115867219D02*
X158380950Y-115914838D01*
X158380950Y-115914838D02*
X158333331Y-115962457D01*
X158333331Y-115962457D02*
X158285712Y-115914838D01*
X158285712Y-115914838D02*
X158333331Y-115867219D01*
X158333331Y-115867219D02*
X158333331Y-115962457D01*
X157904760Y-116819600D02*
X157809522Y-116867219D01*
X157809522Y-116867219D02*
X157619046Y-116867219D01*
X157619046Y-116867219D02*
X157523808Y-116819600D01*
X157523808Y-116819600D02*
X157476189Y-116724361D01*
X157476189Y-116724361D02*
X157476189Y-116676742D01*
X157476189Y-116676742D02*
X157523808Y-116581504D01*
X157523808Y-116581504D02*
X157619046Y-116533885D01*
X157619046Y-116533885D02*
X157761903Y-116533885D01*
X157761903Y-116533885D02*
X157857141Y-116486266D01*
X157857141Y-116486266D02*
X157904760Y-116391028D01*
X157904760Y-116391028D02*
X157904760Y-116343409D01*
X157904760Y-116343409D02*
X157857141Y-116248171D01*
X157857141Y-116248171D02*
X157761903Y-116200552D01*
X157761903Y-116200552D02*
X157619046Y-116200552D01*
X157619046Y-116200552D02*
X157523808Y-116248171D01*
X157190474Y-116200552D02*
X156809522Y-116200552D01*
X157047617Y-115867219D02*
X157047617Y-116724361D01*
X157047617Y-116724361D02*
X156999998Y-116819600D01*
X156999998Y-116819600D02*
X156904760Y-116867219D01*
X156904760Y-116867219D02*
X156809522Y-116867219D01*
X156476188Y-116867219D02*
X156476188Y-116200552D01*
X156476188Y-115867219D02*
X156523807Y-115914838D01*
X156523807Y-115914838D02*
X156476188Y-115962457D01*
X156476188Y-115962457D02*
X156428569Y-115914838D01*
X156428569Y-115914838D02*
X156476188Y-115867219D01*
X156476188Y-115867219D02*
X156476188Y-115962457D01*
X155571427Y-116867219D02*
X155571427Y-116343409D01*
X155571427Y-116343409D02*
X155619046Y-116248171D01*
X155619046Y-116248171D02*
X155714284Y-116200552D01*
X155714284Y-116200552D02*
X155904760Y-116200552D01*
X155904760Y-116200552D02*
X155999998Y-116248171D01*
X155571427Y-116819600D02*
X155666665Y-116867219D01*
X155666665Y-116867219D02*
X155904760Y-116867219D01*
X155904760Y-116867219D02*
X155999998Y-116819600D01*
X155999998Y-116819600D02*
X156047617Y-116724361D01*
X156047617Y-116724361D02*
X156047617Y-116629123D01*
X156047617Y-116629123D02*
X155999998Y-116533885D01*
X155999998Y-116533885D02*
X155904760Y-116486266D01*
X155904760Y-116486266D02*
X155666665Y-116486266D01*
X155666665Y-116486266D02*
X155571427Y-116438647D01*
X155095236Y-116200552D02*
X155095236Y-116867219D01*
X155095236Y-116295790D02*
X155047617Y-116248171D01*
X155047617Y-116248171D02*
X154952379Y-116200552D01*
X154952379Y-116200552D02*
X154809522Y-116200552D01*
X154809522Y-116200552D02*
X154714284Y-116248171D01*
X154714284Y-116248171D02*
X154666665Y-116343409D01*
X154666665Y-116343409D02*
X154666665Y-116867219D01*
X153428569Y-116867219D02*
X153428569Y-115867219D01*
X153428569Y-116343409D02*
X152857141Y-116343409D01*
X152857141Y-116867219D02*
X152857141Y-115867219D01*
X151999998Y-116819600D02*
X152095236Y-116867219D01*
X152095236Y-116867219D02*
X152285712Y-116867219D01*
X152285712Y-116867219D02*
X152380950Y-116819600D01*
X152380950Y-116819600D02*
X152428569Y-116724361D01*
X152428569Y-116724361D02*
X152428569Y-116343409D01*
X152428569Y-116343409D02*
X152380950Y-116248171D01*
X152380950Y-116248171D02*
X152285712Y-116200552D01*
X152285712Y-116200552D02*
X152095236Y-116200552D01*
X152095236Y-116200552D02*
X151999998Y-116248171D01*
X151999998Y-116248171D02*
X151952379Y-116343409D01*
X151952379Y-116343409D02*
X151952379Y-116438647D01*
X151952379Y-116438647D02*
X152428569Y-116533885D01*
X151523807Y-116867219D02*
X151523807Y-116200552D01*
X151523807Y-115867219D02*
X151571426Y-115914838D01*
X151571426Y-115914838D02*
X151523807Y-115962457D01*
X151523807Y-115962457D02*
X151476188Y-115914838D01*
X151476188Y-115914838D02*
X151523807Y-115867219D01*
X151523807Y-115867219D02*
X151523807Y-115962457D01*
X151047617Y-116867219D02*
X151047617Y-116200552D01*
X151047617Y-116295790D02*
X150999998Y-116248171D01*
X150999998Y-116248171D02*
X150904760Y-116200552D01*
X150904760Y-116200552D02*
X150761903Y-116200552D01*
X150761903Y-116200552D02*
X150666665Y-116248171D01*
X150666665Y-116248171D02*
X150619046Y-116343409D01*
X150619046Y-116343409D02*
X150619046Y-116867219D01*
X150619046Y-116343409D02*
X150571427Y-116248171D01*
X150571427Y-116248171D02*
X150476189Y-116200552D01*
X150476189Y-116200552D02*
X150333332Y-116200552D01*
X150333332Y-116200552D02*
X150238093Y-116248171D01*
X150238093Y-116248171D02*
X150190474Y-116343409D01*
X150190474Y-116343409D02*
X150190474Y-116867219D01*
X149809522Y-116200552D02*
X149571427Y-116867219D01*
X149571427Y-116867219D02*
X149333332Y-116200552D01*
X148952379Y-116867219D02*
X148952379Y-116200552D01*
X148952379Y-115867219D02*
X148999998Y-115914838D01*
X148999998Y-115914838D02*
X148952379Y-115962457D01*
X148952379Y-115962457D02*
X148904760Y-115914838D01*
X148904760Y-115914838D02*
X148952379Y-115867219D01*
X148952379Y-115867219D02*
X148952379Y-115962457D01*
X148476189Y-116867219D02*
X148476189Y-115867219D01*
X148380951Y-116486266D02*
X148095237Y-116867219D01*
X148095237Y-116200552D02*
X148476189Y-116581504D01*
X125511904Y-70452219D02*
X124940476Y-70452219D01*
X125226190Y-71452219D02*
X125226190Y-70452219D01*
X124607142Y-71452219D02*
X124607142Y-70452219D01*
X124607142Y-70452219D02*
X124226190Y-70452219D01*
X124226190Y-70452219D02*
X124130952Y-70499838D01*
X124130952Y-70499838D02*
X124083333Y-70547457D01*
X124083333Y-70547457D02*
X124035714Y-70642695D01*
X124035714Y-70642695D02*
X124035714Y-70785552D01*
X124035714Y-70785552D02*
X124083333Y-70880790D01*
X124083333Y-70880790D02*
X124130952Y-70928409D01*
X124130952Y-70928409D02*
X124226190Y-70976028D01*
X124226190Y-70976028D02*
X124607142Y-70976028D01*
X123083333Y-71452219D02*
X123654761Y-71452219D01*
X123369047Y-71452219D02*
X123369047Y-70452219D01*
X123369047Y-70452219D02*
X123464285Y-70595076D01*
X123464285Y-70595076D02*
X123559523Y-70690314D01*
X123559523Y-70690314D02*
X123654761Y-70737933D01*
X128642857Y-94702219D02*
X128976190Y-94226028D01*
X129214285Y-94702219D02*
X129214285Y-93702219D01*
X129214285Y-93702219D02*
X128833333Y-93702219D01*
X128833333Y-93702219D02*
X128738095Y-93749838D01*
X128738095Y-93749838D02*
X128690476Y-93797457D01*
X128690476Y-93797457D02*
X128642857Y-93892695D01*
X128642857Y-93892695D02*
X128642857Y-94035552D01*
X128642857Y-94035552D02*
X128690476Y-94130790D01*
X128690476Y-94130790D02*
X128738095Y-94178409D01*
X128738095Y-94178409D02*
X128833333Y-94226028D01*
X128833333Y-94226028D02*
X129214285Y-94226028D01*
X127690476Y-94702219D02*
X128261904Y-94702219D01*
X127976190Y-94702219D02*
X127976190Y-93702219D01*
X127976190Y-93702219D02*
X128071428Y-93845076D01*
X128071428Y-93845076D02*
X128166666Y-93940314D01*
X128166666Y-93940314D02*
X128261904Y-93987933D01*
X127357142Y-93702219D02*
X126738095Y-93702219D01*
X126738095Y-93702219D02*
X127071428Y-94083171D01*
X127071428Y-94083171D02*
X126928571Y-94083171D01*
X126928571Y-94083171D02*
X126833333Y-94130790D01*
X126833333Y-94130790D02*
X126785714Y-94178409D01*
X126785714Y-94178409D02*
X126738095Y-94273647D01*
X126738095Y-94273647D02*
X126738095Y-94511742D01*
X126738095Y-94511742D02*
X126785714Y-94606980D01*
X126785714Y-94606980D02*
X126833333Y-94654600D01*
X126833333Y-94654600D02*
X126928571Y-94702219D01*
X126928571Y-94702219D02*
X127214285Y-94702219D01*
X127214285Y-94702219D02*
X127309523Y-94654600D01*
X127309523Y-94654600D02*
X127357142Y-94606980D01*
X137488094Y-68452219D02*
X137488094Y-69261742D01*
X137488094Y-69261742D02*
X137440475Y-69356980D01*
X137440475Y-69356980D02*
X137392856Y-69404600D01*
X137392856Y-69404600D02*
X137297618Y-69452219D01*
X137297618Y-69452219D02*
X137107142Y-69452219D01*
X137107142Y-69452219D02*
X137011904Y-69404600D01*
X137011904Y-69404600D02*
X136964285Y-69356980D01*
X136964285Y-69356980D02*
X136916666Y-69261742D01*
X136916666Y-69261742D02*
X136916666Y-68452219D01*
X135916666Y-69452219D02*
X136488094Y-69452219D01*
X136202380Y-69452219D02*
X136202380Y-68452219D01*
X136202380Y-68452219D02*
X136297618Y-68595076D01*
X136297618Y-68595076D02*
X136392856Y-68690314D01*
X136392856Y-68690314D02*
X136488094Y-68737933D01*
X135297618Y-68452219D02*
X135202380Y-68452219D01*
X135202380Y-68452219D02*
X135107142Y-68499838D01*
X135107142Y-68499838D02*
X135059523Y-68547457D01*
X135059523Y-68547457D02*
X135011904Y-68642695D01*
X135011904Y-68642695D02*
X134964285Y-68833171D01*
X134964285Y-68833171D02*
X134964285Y-69071266D01*
X134964285Y-69071266D02*
X135011904Y-69261742D01*
X135011904Y-69261742D02*
X135059523Y-69356980D01*
X135059523Y-69356980D02*
X135107142Y-69404600D01*
X135107142Y-69404600D02*
X135202380Y-69452219D01*
X135202380Y-69452219D02*
X135297618Y-69452219D01*
X135297618Y-69452219D02*
X135392856Y-69404600D01*
X135392856Y-69404600D02*
X135440475Y-69356980D01*
X135440475Y-69356980D02*
X135488094Y-69261742D01*
X135488094Y-69261742D02*
X135535713Y-69071266D01*
X135535713Y-69071266D02*
X135535713Y-68833171D01*
X135535713Y-68833171D02*
X135488094Y-68642695D01*
X135488094Y-68642695D02*
X135440475Y-68547457D01*
X135440475Y-68547457D02*
X135392856Y-68499838D01*
X135392856Y-68499838D02*
X135297618Y-68452219D01*
D11*
%TO.C,TP1*%
X126300000Y-70300000D02*
X127700000Y-70300000D01*
X126300000Y-71700000D02*
X126300000Y-70300000D01*
X127700000Y-70300000D02*
X127700000Y-71700000D01*
X127700000Y-71700000D02*
X126300000Y-71700000D01*
%TO.C,R13*%
X131522936Y-93015000D02*
X131977064Y-93015000D01*
X131522936Y-94485000D02*
X131977064Y-94485000D01*
D12*
%TO.C,U10*%
X138000000Y-70480000D02*
X134000000Y-70480000D01*
X138000000Y-75520000D02*
X134000000Y-75520000D01*
D10*
X131655000Y-75495000D02*
G75*
G02*
X131455000Y-75495000I-100000J0D01*
G01*
X131455000Y-75495000D02*
G75*
G02*
X131655000Y-75495000I100000J0D01*
G01*
%TD*%
%LPC*%
D11*
%TO.C,J1*%
X115550000Y-61350000D02*
G75*
G02*
X113950000Y-61350000I-800000J0D01*
G01*
X113950000Y-61350000D02*
G75*
G02*
X115550000Y-61350000I800000J0D01*
G01*
X115650000Y-65850000D02*
G75*
G02*
X113850000Y-65850000I-900000J0D01*
G01*
X113850000Y-65850000D02*
G75*
G02*
X115650000Y-65850000I900000J0D01*
G01*
%TD*%
D13*
%TO.C,C1*%
X127000000Y-68500000D03*
D14*
X127000000Y-61000000D03*
%TD*%
D15*
%TO.C,RV2*%
X166519250Y-109917500D03*
D16*
X166519250Y-107377500D03*
X166519250Y-104837500D03*
%TD*%
D15*
%TO.C,J2*%
X113080000Y-96000000D03*
D16*
X110540000Y-96000000D03*
X108000000Y-96000000D03*
%TD*%
D17*
%TO.C,C18*%
X130000000Y-73250000D03*
D18*
X130000000Y-71250000D03*
%TD*%
%TO.C,J5*%
X173480750Y-127662500D03*
X173480750Y-130162500D03*
X178480750Y-122662500D03*
X183480750Y-127662500D03*
X183480750Y-130162500D03*
D19*
X178480750Y-127662500D03*
D20*
X183480750Y-122662500D03*
X173480750Y-122662500D03*
%TD*%
D21*
%TO.C,C2*%
X114250000Y-74817621D03*
D22*
X114250000Y-77317621D03*
%TD*%
D23*
%TO.C,U2*%
X106695000Y-88172323D03*
D24*
X106695000Y-85632323D03*
X106695000Y-83092323D03*
%TD*%
D15*
%TO.C,J3*%
X141475000Y-130975000D03*
D16*
X144015000Y-130975000D03*
X146555000Y-130975000D03*
%TD*%
D17*
%TO.C,C19*%
X126527401Y-80500000D03*
D18*
X128527401Y-80500000D03*
%TD*%
D25*
%TO.C,J1*%
X114750000Y-65850000D03*
D22*
X114750000Y-61350000D03*
%TD*%
D15*
%TO.C,RV1*%
X154019250Y-104837500D03*
D16*
X154019250Y-107377500D03*
X154019250Y-109917500D03*
%TD*%
D15*
%TO.C,J8*%
X188850000Y-90250000D03*
D16*
X188850000Y-87710000D03*
X188850000Y-85170000D03*
X188850000Y-82630000D03*
%TD*%
D18*
%TO.C,J4*%
X159480750Y-127662500D03*
X159480750Y-130162500D03*
X164480750Y-122662500D03*
X169480750Y-127662500D03*
X169480750Y-130162500D03*
D19*
X164480750Y-127662500D03*
D20*
X169480750Y-122662500D03*
X159480750Y-122662500D03*
%TD*%
D26*
%TO.C,J7*%
X186302500Y-64920000D03*
D27*
X188842500Y-64920000D03*
X186302500Y-67460000D03*
X188842500Y-67460000D03*
X186302500Y-70000000D03*
X188842500Y-70000000D03*
X186302500Y-72540000D03*
X188842500Y-72540000D03*
X186302500Y-75080000D03*
X188842500Y-75080000D03*
%TD*%
D15*
%TO.C,J9*%
X143025000Y-79200000D03*
D16*
X143025000Y-81740000D03*
X143025000Y-84280000D03*
X143025000Y-86820000D03*
%TD*%
D28*
%TO.C,D6*%
X135750000Y-80670000D03*
D29*
X135750000Y-90830000D03*
%TD*%
D15*
%TO.C,J6*%
X122250000Y-96000000D03*
D16*
X119710000Y-96000000D03*
%TD*%
D23*
%TO.C,U1*%
X106695000Y-77290000D03*
D24*
X106695000Y-74750000D03*
X106695000Y-72210000D03*
%TD*%
D13*
%TO.C,C3*%
X118250000Y-84500000D03*
D14*
X118250000Y-92000000D03*
%TD*%
D30*
%TO.C,Q1*%
X125730000Y-92750000D03*
D31*
X127000000Y-92750000D03*
X128270000Y-92750000D03*
%TD*%
D28*
%TO.C,D5*%
X131750000Y-90750000D03*
D29*
X131750000Y-80590000D03*
%TD*%
D32*
%TO.C,TP1*%
X127000000Y-71000000D03*
%TD*%
D33*
%TO.C,R13*%
X132750000Y-93750000D03*
X130750000Y-93750000D03*
%TD*%
D34*
%TO.C,U10*%
X133525000Y-74905000D03*
X133525000Y-73635000D03*
X133525000Y-72365000D03*
X133525000Y-71095000D03*
X138475000Y-71095000D03*
X138475000Y-72365000D03*
X138475000Y-73635000D03*
X138475000Y-74905000D03*
%TD*%
%LPD*%
M02*
