M48
; DRILL file {KiCad 8.0.4} date 2024-09-11T20:40:44+0200
; FORMAT={-:-/ absolute / metric / decimal}
; #@! TF.CreationDate,2024-09-11T20:40:44+02:00
; #@! TF.GenerationSoftware,Kicad,Pcbnew,8.0.4
; #@! TF.FileFunction,Plated,1,2,PTH
FMAT,2
METRIC
; #@! TA.AperFunction,Plated,PTH,ComponentDrill
T1C0.200
; #@! TA.AperFunction,Plated,PTH,ViaDrill
T2C0.300
; #@! TA.AperFunction,Plated,PTH,ComponentDrill
T3C0.600
; #@! TA.AperFunction,Plated,PTH,ComponentDrill
T4C0.750
; #@! TA.AperFunction,Plated,PTH,ComponentDrill
T5C0.800
; #@! TA.AperFunction,Plated,PTH,ComponentDrill
T6C1.000
; #@! TA.AperFunction,Plated,PTH,ComponentDrill
T7C1.100
%
G90
G05
T1
X154.7Y-74.9
X154.7Y-76.3
X155.4Y-74.2
X155.4Y-75.6
X155.4Y-77.0
X156.075Y-74.9
X156.075Y-76.3
X156.8Y-74.2
X156.8Y-75.6
X156.8Y-77.0
X157.5Y-74.9
X157.5Y-76.3
T2
X119.5Y-88.25
X135.0Y-76.25
X135.25Y-69.0
X138.085Y-110.415
X139.0Y-105.0
X141.625Y-122.125
X142.0Y-74.75
X142.75Y-69.0
X143.0Y-74.0
X146.0Y-87.0
X147.419Y-72.169
X147.5Y-99.987
X148.75Y-124.5
X148.75Y-129.75
X148.901Y-91.0
X149.0Y-127.25
X149.35Y-120.25
X149.799Y-87.35
X150.0Y-84.5
X150.0Y-91.0
X150.5Y-81.75
X150.5Y-85.5
X150.5Y-100.1
X150.75Y-87.35
X150.75Y-110.5
X151.0Y-91.0
X151.0Y-94.0
X151.25Y-81.19
X151.5Y-73.5
X151.5Y-87.75
X151.724Y-125.0
X151.75Y-100.65
X151.75Y-129.25
X152.0Y-87.0
X152.25Y-70.75
X152.324Y-123.75
X153.25Y-84.5
X154.25Y-79.0
X154.25Y-83.5
X154.5Y-123.75
X154.5Y-125.0
X155.025Y-115.125
X155.5Y-116.5
X157.0Y-90.0
X157.25Y-127.25
X157.75Y-103.0
X158.75Y-111.5
X158.85Y-104.5
X158.9Y-100.25
X159.0Y-97.7
X159.75Y-69.25
X159.75Y-81.0
X160.75Y-103.0
X161.0Y-80.5
X161.0Y-84.25
X161.5Y-92.1
X161.5Y-93.0
X162.0Y-84.5
X162.1Y-76.75
X162.6Y-83.401
X162.621Y-81.192
X162.799Y-100.201
X163.0Y-108.75
X163.25Y-82.238
X163.549Y-100.951
X163.9Y-110.25
X164.0Y-82.838
X164.25Y-77.75
X164.424Y-101.826
X164.5Y-84.5
X165.5Y-117.25
X165.828Y-100.914
X166.0Y-89.5
X166.75Y-124.0
X167.25Y-127.25
X167.5Y-117.25
X167.75Y-72.4
X167.75Y-74.25
X167.75Y-78.0
X167.75Y-124.0
X168.05Y-127.25
X168.5Y-75.75
X168.5Y-78.5
X168.75Y-71.6
X170.25Y-109.25
X171.25Y-92.1
X171.5Y-72.4
X171.5Y-76.5
X171.5Y-100.25
X171.75Y-77.5
X172.25Y-74.23
X172.299Y-82.299
X172.95Y-85.75
X173.0Y-83.0
X173.75Y-73.0
X173.75Y-85.0
X176.209Y-71.6
X176.5Y-80.25
X176.5Y-100.0
X177.25Y-75.25
X177.25Y-78.25
X177.25Y-104.4
X177.5Y-79.75
X177.549Y-106.701
X177.75Y-74.5
X177.75Y-91.75
X178.0Y-71.25
X178.25Y-79.25
X180.25Y-93.0
X181.0Y-71.25
X181.25Y-99.25
X182.25Y-83.25
X182.475Y-91.6
X182.5Y-82.25
X183.5Y-76.0
X183.5Y-87.5
X184.5Y-111.25
X184.783Y-91.875
X186.15Y-82.0
X186.25Y-90.0
X186.75Y-90.75
X189.75Y-77.0
T3
X126.527Y-80.5
X128.527Y-80.5
X130.0Y-71.25
X130.0Y-73.25
T4
X125.73Y-92.75
X127.0Y-92.75
X128.27Y-92.75
T5
X114.25Y-74.818
X114.25Y-77.318
T6
X108.0Y-96.0
X110.54Y-96.0
X113.08Y-96.0
X118.25Y-84.5
X118.25Y-92.0
X119.71Y-96.0
X122.25Y-96.0
X127.0Y-61.0
X127.0Y-68.5
X141.475Y-130.975
X143.025Y-79.2
X143.025Y-81.74
X143.025Y-84.28
X143.025Y-86.82
X144.015Y-130.975
X146.555Y-130.975
X154.019Y-104.837
X154.019Y-107.377
X154.019Y-109.917
X166.519Y-104.837
X166.519Y-107.377
X166.519Y-109.917
X186.302Y-64.92
X186.302Y-67.46
X186.302Y-70.0
X186.302Y-72.54
X186.302Y-75.08
X188.843Y-64.92
X188.843Y-67.46
X188.843Y-70.0
X188.843Y-72.54
X188.843Y-75.08
X188.85Y-82.63
X188.85Y-85.17
X188.85Y-87.71
X188.85Y-90.25
T7
X106.695Y-72.21
X106.695Y-74.75
X106.695Y-77.29
X106.695Y-83.092
X106.695Y-85.632
X106.695Y-88.172
X131.75Y-80.59
X131.75Y-90.75
X135.75Y-80.67
X135.75Y-90.83
T5
X159.481Y-122.312G85X159.481Y-123.012
G05
X164.131Y-127.662G85X164.831Y-127.662
G05
X169.481Y-122.312G85X169.481Y-123.012
G05
X173.481Y-122.312G85X173.481Y-123.012
G05
X178.131Y-127.662G85X178.831Y-127.662
G05
X183.481Y-122.312G85X183.481Y-123.012
G05
M30
