%TF.GenerationSoftware,KiCad,Pcbnew,8.0.4*%
%TF.CreationDate,2024-09-11T20:39:54+02:00*%
%TF.ProjectId,BaseBoard,42617365-426f-4617-9264-2e6b69636164,rev?*%
%TF.SameCoordinates,Original*%
%TF.FileFunction,Soldermask,Bot*%
%TF.FilePolarity,Negative*%
%FSLAX46Y46*%
G04 Gerber Fmt 4.6, Leading zero omitted, Abs format (unit mm)*
G04 Created by KiCad (PCBNEW 8.0.4) date 2024-09-11 20:39:54*
%MOMM*%
%LPD*%
G01*
G04 APERTURE LIST*
G04 Aperture macros list*
%AMRoundRect*
0 Rectangle with rounded corners*
0 $1 Rounding radius*
0 $2 $3 $4 $5 $6 $7 $8 $9 X,Y pos of 4 corners*
0 Add a 4 corners polygon primitive as box body*
4,1,4,$2,$3,$4,$5,$6,$7,$8,$9,$2,$3,0*
0 Add four circle primitives for the rounded corners*
1,1,$1+$1,$2,$3*
1,1,$1+$1,$4,$5*
1,1,$1+$1,$6,$7*
1,1,$1+$1,$8,$9*
0 Add four rect primitives between the rounded corners*
20,1,$1+$1,$2,$3,$4,$5,0*
20,1,$1+$1,$4,$5,$6,$7,0*
20,1,$1+$1,$6,$7,$8,$9,0*
20,1,$1+$1,$8,$9,$2,$3,0*%
G04 Aperture macros list end*
%ADD10C,0.120000*%
%ADD11R,2.000000X2.000000*%
%ADD12C,2.000000*%
%ADD13R,1.700000X1.700000*%
%ADD14O,1.700000X1.700000*%
%ADD15R,1.200000X1.200000*%
%ADD16C,1.200000*%
%ADD17O,2.820000X1.512000*%
%ADD18O,1.512000X2.820000*%
%ADD19R,1.600000X1.600000*%
%ADD20C,1.600000*%
%ADD21R,2.000000X1.905000*%
%ADD22O,2.000000X1.905000*%
%ADD23C,1.800000*%
%ADD24RoundRect,0.250000X-0.600000X-0.600000X0.600000X-0.600000X0.600000X0.600000X-0.600000X0.600000X0*%
%ADD25C,1.700000*%
%ADD26R,2.200000X2.200000*%
%ADD27O,2.200000X2.200000*%
%ADD28R,1.050000X1.500000*%
%ADD29O,1.050000X1.500000*%
%ADD30R,1.000000X1.000000*%
%ADD31RoundRect,0.250000X0.350000X0.450000X-0.350000X0.450000X-0.350000X-0.450000X0.350000X-0.450000X0*%
%ADD32RoundRect,0.099250X-0.987750X-0.297750X0.987750X-0.297750X0.987750X0.297750X-0.987750X0.297750X0*%
G04 APERTURE END LIST*
D10*
%TO.C,J1*%
X115550000Y-61350000D02*
G75*
G02*
X113950000Y-61350000I-800000J0D01*
G01*
X113950000Y-61350000D02*
G75*
G02*
X115550000Y-61350000I800000J0D01*
G01*
X115650000Y-65850000D02*
G75*
G02*
X113850000Y-65850000I-900000J0D01*
G01*
X113850000Y-65850000D02*
G75*
G02*
X115650000Y-65850000I900000J0D01*
G01*
%TD*%
D11*
%TO.C,C1*%
X127000000Y-68500000D03*
D12*
X127000000Y-61000000D03*
%TD*%
D13*
%TO.C,RV2*%
X166519250Y-109917500D03*
D14*
X166519250Y-107377500D03*
X166519250Y-104837500D03*
%TD*%
D13*
%TO.C,J2*%
X113080000Y-96000000D03*
D14*
X110540000Y-96000000D03*
X108000000Y-96000000D03*
%TD*%
D15*
%TO.C,C18*%
X130000000Y-73250000D03*
D16*
X130000000Y-71250000D03*
%TD*%
%TO.C,J5*%
X173480750Y-127662500D03*
X173480750Y-130162500D03*
X178480750Y-122662500D03*
X183480750Y-127662500D03*
X183480750Y-130162500D03*
D17*
X178480750Y-127662500D03*
D18*
X183480750Y-122662500D03*
X173480750Y-122662500D03*
%TD*%
D19*
%TO.C,C2*%
X114250000Y-74817621D03*
D20*
X114250000Y-77317621D03*
%TD*%
D21*
%TO.C,U2*%
X106695000Y-88172323D03*
D22*
X106695000Y-85632323D03*
X106695000Y-83092323D03*
%TD*%
D13*
%TO.C,J3*%
X141475000Y-130975000D03*
D14*
X144015000Y-130975000D03*
X146555000Y-130975000D03*
%TD*%
D15*
%TO.C,C19*%
X126527401Y-80500000D03*
D16*
X128527401Y-80500000D03*
%TD*%
D23*
%TO.C,J1*%
X114750000Y-65850000D03*
D20*
X114750000Y-61350000D03*
%TD*%
D13*
%TO.C,RV1*%
X154019250Y-104837500D03*
D14*
X154019250Y-107377500D03*
X154019250Y-109917500D03*
%TD*%
D13*
%TO.C,J8*%
X188850000Y-90250000D03*
D14*
X188850000Y-87710000D03*
X188850000Y-85170000D03*
X188850000Y-82630000D03*
%TD*%
D16*
%TO.C,J4*%
X159480750Y-127662500D03*
X159480750Y-130162500D03*
X164480750Y-122662500D03*
X169480750Y-127662500D03*
X169480750Y-130162500D03*
D17*
X164480750Y-127662500D03*
D18*
X169480750Y-122662500D03*
X159480750Y-122662500D03*
%TD*%
D24*
%TO.C,J7*%
X186302500Y-64920000D03*
D25*
X188842500Y-64920000D03*
X186302500Y-67460000D03*
X188842500Y-67460000D03*
X186302500Y-70000000D03*
X188842500Y-70000000D03*
X186302500Y-72540000D03*
X188842500Y-72540000D03*
X186302500Y-75080000D03*
X188842500Y-75080000D03*
%TD*%
D13*
%TO.C,J9*%
X143025000Y-79200000D03*
D14*
X143025000Y-81740000D03*
X143025000Y-84280000D03*
X143025000Y-86820000D03*
%TD*%
D26*
%TO.C,D6*%
X135750000Y-80670000D03*
D27*
X135750000Y-90830000D03*
%TD*%
D13*
%TO.C,J6*%
X122250000Y-96000000D03*
D14*
X119710000Y-96000000D03*
%TD*%
D21*
%TO.C,U1*%
X106695000Y-77290000D03*
D22*
X106695000Y-74750000D03*
X106695000Y-72210000D03*
%TD*%
D11*
%TO.C,C3*%
X118250000Y-84500000D03*
D12*
X118250000Y-92000000D03*
%TD*%
D28*
%TO.C,Q1*%
X125730000Y-92750000D03*
D29*
X127000000Y-92750000D03*
X128270000Y-92750000D03*
%TD*%
D26*
%TO.C,D5*%
X131750000Y-90750000D03*
D27*
X131750000Y-80590000D03*
%TD*%
D30*
%TO.C,TP1*%
X127000000Y-71000000D03*
%TD*%
D31*
%TO.C,R13*%
X132750000Y-93750000D03*
X130750000Y-93750000D03*
%TD*%
D32*
%TO.C,U10*%
X133525000Y-74905000D03*
X133525000Y-73635000D03*
X133525000Y-72365000D03*
X133525000Y-71095000D03*
X138475000Y-71095000D03*
X138475000Y-72365000D03*
X138475000Y-73635000D03*
X138475000Y-74905000D03*
%TD*%
M02*
