%TF.GenerationSoftware,KiCad,Pcbnew,8.0.4*%
%TF.CreationDate,2024-09-11T20:39:54+02:00*%
%TF.ProjectId,BaseBoard,42617365-426f-4617-9264-2e6b69636164,rev?*%
%TF.SameCoordinates,Original*%
%TF.FileFunction,Paste,Top*%
%TF.FilePolarity,Positive*%
%FSLAX46Y46*%
G04 Gerber Fmt 4.6, Leading zero omitted, Abs format (unit mm)*
G04 Created by KiCad (PCBNEW 8.0.4) date 2024-09-11 20:39:54*
%MOMM*%
%LPD*%
G01*
G04 APERTURE LIST*
G04 Aperture macros list*
%AMRoundRect*
0 Rectangle with rounded corners*
0 $1 Rounding radius*
0 $2 $3 $4 $5 $6 $7 $8 $9 X,Y pos of 4 corners*
0 Add a 4 corners polygon primitive as box body*
4,1,4,$2,$3,$4,$5,$6,$7,$8,$9,$2,$3,0*
0 Add four circle primitives for the rounded corners*
1,1,$1+$1,$2,$3*
1,1,$1+$1,$4,$5*
1,1,$1+$1,$6,$7*
1,1,$1+$1,$8,$9*
0 Add four rect primitives between the rounded corners*
20,1,$1+$1,$2,$3,$4,$5,0*
20,1,$1+$1,$4,$5,$6,$7,0*
20,1,$1+$1,$6,$7,$8,$9,0*
20,1,$1+$1,$8,$9,$2,$3,0*%
G04 Aperture macros list end*
%ADD10RoundRect,0.250000X0.450000X-0.350000X0.450000X0.350000X-0.450000X0.350000X-0.450000X-0.350000X0*%
%ADD11RoundRect,0.250000X0.475000X-0.337500X0.475000X0.337500X-0.475000X0.337500X-0.475000X-0.337500X0*%
%ADD12RoundRect,0.250000X-0.450000X0.350000X-0.450000X-0.350000X0.450000X-0.350000X0.450000X0.350000X0*%
%ADD13RoundRect,0.250000X-0.337500X-0.475000X0.337500X-0.475000X0.337500X0.475000X-0.337500X0.475000X0*%
%ADD14RoundRect,0.250000X0.337500X0.475000X-0.337500X0.475000X-0.337500X-0.475000X0.337500X-0.475000X0*%
%ADD15RoundRect,0.250000X0.325000X0.450000X-0.325000X0.450000X-0.325000X-0.450000X0.325000X-0.450000X0*%
%ADD16R,1.300000X1.550000*%
%ADD17R,1.400000X0.600000*%
%ADD18R,1.500000X0.900000*%
%ADD19R,0.900000X1.500000*%
%ADD20R,0.900000X0.900000*%
%ADD21RoundRect,0.250000X0.750000X0.750000X-0.750000X0.750000X-0.750000X-0.750000X0.750000X-0.750000X0*%
%ADD22R,0.250000X1.100000*%
%ADD23RoundRect,0.250000X0.350000X0.450000X-0.350000X0.450000X-0.350000X-0.450000X0.350000X-0.450000X0*%
%ADD24RoundRect,0.250000X-0.475000X0.337500X-0.475000X-0.337500X0.475000X-0.337500X0.475000X0.337500X0*%
%ADD25R,1.200000X0.600000*%
G04 APERTURE END LIST*
D10*
%TO.C,R16*%
X145019250Y-109837500D03*
X145019250Y-107837500D03*
%TD*%
%TO.C,R11*%
X175000000Y-75000000D03*
X175000000Y-73000000D03*
%TD*%
D11*
%TO.C,C16*%
X149019250Y-107875000D03*
X149019250Y-105800000D03*
%TD*%
D12*
%TO.C,R19*%
X173750000Y-68000000D03*
X173750000Y-70000000D03*
%TD*%
D13*
%TO.C,C14*%
X142925000Y-100000000D03*
X145000000Y-100000000D03*
%TD*%
D14*
%TO.C,C7*%
X173094250Y-110500000D03*
X171019250Y-110500000D03*
%TD*%
D10*
%TO.C,R4*%
X180000000Y-114000000D03*
X180000000Y-112000000D03*
%TD*%
%TO.C,R1*%
X175556750Y-109500000D03*
X175556750Y-107500000D03*
%TD*%
D14*
%TO.C,C13*%
X146037500Y-71000000D03*
X143962500Y-71000000D03*
%TD*%
D10*
%TO.C,R12*%
X175000000Y-87000000D03*
X175000000Y-85000000D03*
%TD*%
%TO.C,R3*%
X175556750Y-113500000D03*
X175556750Y-111500000D03*
%TD*%
%TO.C,R15*%
X140519250Y-110000000D03*
X140519250Y-108000000D03*
%TD*%
D15*
%TO.C,D7*%
X175000000Y-89000000D03*
X172950000Y-89000000D03*
%TD*%
D16*
%TO.C,PB1*%
X182250000Y-85000000D03*
X182250000Y-92950000D03*
X177750000Y-85000000D03*
X177750000Y-92950000D03*
%TD*%
D17*
%TO.C,U4*%
X162592250Y-107742500D03*
X162592250Y-106472500D03*
X162592250Y-105202500D03*
X162592250Y-103932500D03*
X157446250Y-103932500D03*
X157446250Y-105202500D03*
X157446250Y-106472500D03*
X157446250Y-107742500D03*
%TD*%
D18*
%TO.C,U3*%
X148850000Y-67880000D03*
X148850000Y-69150000D03*
X148850000Y-70420000D03*
X148850000Y-71690000D03*
X148850000Y-72960000D03*
X148850000Y-74230000D03*
X148850000Y-75500000D03*
X148850000Y-76770000D03*
X148850000Y-78040000D03*
X148850000Y-79310000D03*
X148850000Y-80580000D03*
X148850000Y-81850000D03*
X148850000Y-83120000D03*
X148850000Y-84390000D03*
D19*
X151890000Y-85640000D03*
X153160000Y-85640000D03*
X154430000Y-85640000D03*
X155700000Y-85640000D03*
X156970000Y-85640000D03*
X158240000Y-85640000D03*
X159510000Y-85640000D03*
X160780000Y-85640000D03*
X162050000Y-85640000D03*
X163320000Y-85640000D03*
D18*
X166350000Y-84390000D03*
X166350000Y-83120000D03*
X166350000Y-81850000D03*
X166350000Y-80580000D03*
X166350000Y-79310000D03*
X166350000Y-78040000D03*
X166350000Y-76770000D03*
X166350000Y-75500000D03*
X166350000Y-74230000D03*
X166350000Y-72960000D03*
X166350000Y-71690000D03*
X166350000Y-70420000D03*
X166350000Y-69150000D03*
X166350000Y-67880000D03*
D20*
X154700000Y-74200000D03*
X154700000Y-75600000D03*
X154700000Y-77000000D03*
X156100000Y-74200000D03*
X156100000Y-75600000D03*
X156100000Y-77000000D03*
X157500000Y-74200000D03*
X157500000Y-75600000D03*
X157500000Y-77000000D03*
%TD*%
D11*
%TO.C,C17*%
X156000000Y-119700000D03*
X156000000Y-117625000D03*
%TD*%
D12*
%TO.C,R5*%
X112000000Y-91000000D03*
X112000000Y-93000000D03*
%TD*%
D11*
%TO.C,C11*%
X158750000Y-93037500D03*
X158750000Y-90962500D03*
%TD*%
%TO.C,C20*%
X137750000Y-113537500D03*
X137750000Y-111462500D03*
%TD*%
D21*
%TO.C,J1*%
X120250000Y-67500000D03*
X120250000Y-61350000D03*
X109250000Y-61350000D03*
X109250000Y-67500000D03*
%TD*%
D22*
%TO.C,U6*%
X157000000Y-99150000D03*
X157500000Y-99150000D03*
X158000000Y-99150000D03*
X158500000Y-99150000D03*
X159000000Y-99150000D03*
X159000000Y-94850000D03*
X158500000Y-94850000D03*
X158000000Y-94850000D03*
X157500000Y-94850000D03*
X157000000Y-94850000D03*
%TD*%
D11*
%TO.C,C21*%
X144000000Y-128287500D03*
X144000000Y-126212500D03*
%TD*%
D23*
%TO.C,R10*%
X145000000Y-76000000D03*
X143000000Y-76000000D03*
%TD*%
D11*
%TO.C,C4*%
X182519250Y-101257500D03*
X182519250Y-99182500D03*
%TD*%
D24*
%TO.C,C10*%
X157519250Y-110300000D03*
X157519250Y-112375000D03*
%TD*%
D12*
%TO.C,R9*%
X160019250Y-110337500D03*
X160019250Y-112337500D03*
%TD*%
%TO.C,R20*%
X170800000Y-68000000D03*
X170800000Y-70000000D03*
%TD*%
D15*
%TO.C,D8*%
X175025000Y-77500000D03*
X172975000Y-77500000D03*
%TD*%
D14*
%TO.C,C12*%
X146037500Y-69000000D03*
X143962500Y-69000000D03*
%TD*%
D10*
%TO.C,R17*%
X140519250Y-114000000D03*
X140519250Y-112000000D03*
%TD*%
D17*
%TO.C,U5*%
X175446250Y-101190000D03*
X175446250Y-102460000D03*
X175446250Y-103730000D03*
X175446250Y-105000000D03*
X180592250Y-105000000D03*
X180592250Y-103730000D03*
X180592250Y-102460000D03*
X180592250Y-101190000D03*
%TD*%
D12*
%TO.C,R2*%
X180019250Y-107500000D03*
X180019250Y-109500000D03*
%TD*%
%TO.C,R8*%
X178000000Y-68000000D03*
X178000000Y-70000000D03*
%TD*%
D11*
%TO.C,C9*%
X141500000Y-128287500D03*
X141500000Y-126212500D03*
%TD*%
%TO.C,C6*%
X184019250Y-107537500D03*
X184019250Y-105462500D03*
%TD*%
D10*
%TO.C,R18*%
X145019250Y-113837500D03*
X145019250Y-111837500D03*
%TD*%
%TO.C,R7*%
X185000000Y-92975000D03*
X185000000Y-90975000D03*
%TD*%
D11*
%TO.C,C15*%
X136019250Y-107500000D03*
X136019250Y-105425000D03*
%TD*%
D10*
%TO.C,R6*%
X185000000Y-84000000D03*
X185000000Y-82000000D03*
%TD*%
D13*
%TO.C,C22*%
X147462500Y-110837500D03*
X149537500Y-110837500D03*
%TD*%
D25*
%TO.C,U7*%
X150200000Y-121217500D03*
X150200000Y-122487500D03*
X150200000Y-123757500D03*
X150200000Y-125027500D03*
X150200000Y-126297500D03*
X150200000Y-127567500D03*
X150200000Y-128837500D03*
X150200000Y-130107500D03*
X155800000Y-130107500D03*
X155800000Y-128837500D03*
X155800000Y-127567500D03*
X155800000Y-126297500D03*
X155800000Y-125027500D03*
X155800000Y-123757500D03*
X155800000Y-122487500D03*
X155800000Y-121217500D03*
%TD*%
D17*
%TO.C,U8*%
X140300250Y-101412500D03*
X140300250Y-102682500D03*
X140300250Y-103952500D03*
X140300250Y-105222500D03*
X145446250Y-105222500D03*
X145446250Y-103952500D03*
X145446250Y-102682500D03*
X145446250Y-101412500D03*
%TD*%
D13*
%TO.C,C8*%
X182981750Y-110000000D03*
X185056750Y-110000000D03*
%TD*%
D16*
%TO.C,PB0*%
X182250000Y-73025000D03*
X182250000Y-80975000D03*
X177750000Y-73025000D03*
X177750000Y-80975000D03*
%TD*%
D12*
%TO.C,R14*%
X162519250Y-110337500D03*
X162519250Y-112337500D03*
%TD*%
D11*
%TO.C,C5*%
X172056750Y-106537500D03*
X172056750Y-104462500D03*
%TD*%
D16*
%TO.C,EN1*%
X133750000Y-76975000D03*
X133750000Y-69025000D03*
X138250000Y-76975000D03*
X138250000Y-69025000D03*
%TD*%
D24*
%TO.C,C23*%
X181000000Y-67962500D03*
X181000000Y-70037500D03*
%TD*%
M02*
