%TF.GenerationSoftware,KiCad,Pcbnew,8.0.4*%
%TF.CreationDate,2024-09-11T20:39:54+02:00*%
%TF.ProjectId,BaseBoard,42617365-426f-4617-9264-2e6b69636164,rev?*%
%TF.SameCoordinates,Original*%
%TF.FileFunction,Profile,NP*%
%FSLAX46Y46*%
G04 Gerber Fmt 4.6, Leading zero omitted, Abs format (unit mm)*
G04 Created by KiCad (PCBNEW 8.0.4) date 2024-09-11 20:39:54*
%MOMM*%
%LPD*%
G01*
G04 APERTURE LIST*
%TA.AperFunction,Profile*%
%ADD10C,0.050000*%
%TD*%
G04 APERTURE END LIST*
D10*
X191000000Y-58000000D02*
X191000000Y-56000000D01*
X191000000Y-135000000D02*
X191000000Y-58000000D01*
X131250000Y-98750000D02*
G75*
G02*
X128250000Y-98750000I-1500000J0D01*
G01*
X128250000Y-98750000D02*
G75*
G02*
X131250000Y-98750000I1500000J0D01*
G01*
X103000000Y-56000000D02*
X103000000Y-101000000D01*
X191000000Y-56000000D02*
X103000000Y-56000000D01*
X163000000Y-95250000D02*
X189250000Y-95250000D01*
X189250000Y-96500000D01*
X163000000Y-96500000D01*
X163000000Y-95250000D01*
X103000000Y-101000000D02*
X133000000Y-101000000D01*
X189500000Y-132000000D02*
G75*
G02*
X186500000Y-132000000I-1500000J0D01*
G01*
X186500000Y-132000000D02*
G75*
G02*
X189500000Y-132000000I1500000J0D01*
G01*
X107000000Y-58500000D02*
G75*
G02*
X104000000Y-58500000I-1500000J0D01*
G01*
X104000000Y-58500000D02*
G75*
G02*
X107000000Y-58500000I1500000J0D01*
G01*
X127000000Y-95250000D02*
X151750000Y-95250000D01*
X151750000Y-96500000D01*
X127000000Y-96500000D01*
X127000000Y-95250000D01*
X189500000Y-100000000D02*
G75*
G02*
X186500000Y-100000000I-1500000J0D01*
G01*
X186500000Y-100000000D02*
G75*
G02*
X189500000Y-100000000I1500000J0D01*
G01*
X190000000Y-58250000D02*
G75*
G02*
X187000000Y-58250000I-1500000J0D01*
G01*
X187000000Y-58250000D02*
G75*
G02*
X190000000Y-58250000I1500000J0D01*
G01*
X133000000Y-135000000D02*
X191000000Y-135000000D01*
X137500000Y-132000000D02*
G75*
G02*
X134500000Y-132000000I-1500000J0D01*
G01*
X134500000Y-132000000D02*
G75*
G02*
X137500000Y-132000000I1500000J0D01*
G01*
X133000000Y-101000000D02*
X133000000Y-135000000D01*
M02*
